<svg width="36" height="36" viewBox="0 0 36 36" fill="none" xmlns="http://www.w3.org/2000/svg">
<g clip-path="url(#clip0_134_436)">
<path d="M34.875 16.875H33.75V12.375C33.75 11.7783 33.5129 11.206 33.091 10.784C32.669 10.3621 32.0967 10.125 31.5 10.125H29.25V9C29.25 8.40326 29.0129 7.83097 28.591 7.40901C28.169 6.98705 27.5967 6.75 27 6.75H23.625C23.0283 6.75 22.456 6.98705 22.034 7.40901C21.6121 7.83097 21.375 8.40326 21.375 9V16.875H14.625V9C14.625 8.40326 14.3879 7.83097 13.966 7.40901C13.544 6.98705 12.9717 6.75 12.375 6.75H9C8.40326 6.75 7.83097 6.98705 7.40901 7.40901C6.98705 7.83097 6.75 8.40326 6.75 9V10.125H4.5C3.90326 10.125 3.33097 10.3621 2.90901 10.784C2.48705 11.206 2.25 11.7783 2.25 12.375V16.875H1.125C0.826631 16.875 0.540483 16.9935 0.329505 17.2045C0.118526 17.4155 0 17.7016 0 18C0 18.2984 0.118526 18.5845 0.329505 18.7955C0.540483 19.0065 0.826631 19.125 1.125 19.125H2.25V23.625C2.25 24.2217 2.48705 24.794 2.90901 25.216C3.33097 25.6379 3.90326 25.875 4.5 25.875H6.75V27C6.75 27.5967 6.98705 28.169 7.40901 28.591C7.83097 29.0129 8.40326 29.25 9 29.25H12.375C12.9717 29.25 13.544 29.0129 13.966 28.591C14.3879 28.169 14.625 27.5967 14.625 27V19.125H21.375V27C21.375 27.5967 21.6121 28.169 22.034 28.591C22.456 29.0129 23.0283 29.25 23.625 29.25H27C27.5967 29.25 28.169 29.0129 28.591 28.591C29.0129 28.169 29.25 27.5967 29.25 27V25.875H31.5C32.0967 25.875 32.669 25.6379 33.091 25.216C33.5129 24.794 33.75 24.2217 33.75 23.625V19.125H34.875C35.1734 19.125 35.4595 19.0065 35.6705 18.7955C35.8815 18.5845 36 18.2984 36 18C36 17.7016 35.8815 17.4155 35.6705 17.2045C35.4595 16.9935 35.1734 16.875 34.875 16.875ZM4.5 23.625V12.375H6.75V23.625H4.5ZM12.375 27H9V9H12.375V27ZM27 27H23.625V9H27V24.7247C27 24.7331 27 24.7416 27 24.75C27 24.7584 27 24.7669 27 24.7753V27ZM31.5 23.625H29.25V12.375H31.5V23.625Z" fill="white"/>
</g>
<defs>
<clipPath id="clip0_134_436">
<rect width="36" height="36" fill="white"/>
</clipPath>
</defs>
</svg>
