<svg width="18" height="19" viewBox="0 0 18 19" fill="none" xmlns="http://www.w3.org/2000/svg">
<path opacity="0.2" d="M14.625 10.625C14.625 12.1168 14.0324 13.5476 12.9775 14.6025C11.9226 15.6574 10.4918 16.25 9 16.25C7.50816 16.25 6.07742 15.6574 5.02252 14.6025C3.96763 13.5476 3.375 12.1168 3.375 10.625C3.375 8.47555 4.38891 6.52859 5.55469 5L7.875 7.25L9.72211 2.1875C11.2402 3.4475 14.625 6.69805 14.625 10.625Z" fill="#EE6A0B"/>
<path d="M12.9298 11.2816C12.7839 12.0963 12.3919 12.8468 11.8066 13.432C11.2213 14.0172 10.4708 14.409 9.65602 14.5547C9.62509 14.5596 9.59382 14.5622 9.5625 14.5624C9.4214 14.5623 9.28547 14.5093 9.18166 14.4137C9.07786 14.3182 9.01376 14.1871 9.00208 14.0465C8.9904 13.9058 9.03199 13.766 9.1186 13.6546C9.20522 13.5432 9.33053 13.4684 9.46969 13.4451C10.6348 13.2489 11.6234 12.2604 11.8209 11.0932C11.8459 10.946 11.9283 10.8149 12.05 10.7285C12.1718 10.6421 12.3228 10.6076 12.4699 10.6326C12.6171 10.6576 12.7482 10.74 12.8346 10.8617C12.921 10.9834 12.9555 11.1345 12.9305 11.2816H12.9298ZM15.1875 10.6249C15.1875 12.2659 14.5356 13.8397 13.3752 15.0001C12.2148 16.1605 10.641 16.8124 9 16.8124C7.35897 16.8124 5.78516 16.1605 4.62478 15.0001C3.4644 13.8397 2.8125 12.2659 2.8125 10.6249C2.8125 8.66176 3.58594 6.65434 5.10891 4.65887C5.15711 4.59569 5.21816 4.54343 5.28803 4.50556C5.3579 4.46768 5.43501 4.44504 5.51426 4.43913C5.59352 4.43322 5.67313 4.44416 5.74784 4.47125C5.82256 4.49834 5.89068 4.54096 5.94773 4.59629L7.64367 6.24231L9.19055 1.99473C9.22145 1.91001 9.27227 1.83397 9.33872 1.77301C9.40517 1.71204 9.4853 1.66795 9.57236 1.64445C9.65942 1.62094 9.75086 1.61871 9.83896 1.63794C9.92706 1.65718 10.0093 1.69731 10.0786 1.75496C11.6163 3.03114 15.1875 6.44481 15.1875 10.6249ZM14.0625 10.6249C14.0625 7.38418 11.546 4.58364 9.96961 3.14856L8.40375 7.44254C8.37161 7.53074 8.31792 7.60948 8.24755 7.67161C8.17719 7.73374 8.0924 7.77727 8.0009 7.79824C7.90941 7.81921 7.81412 7.81695 7.72373 7.79166C7.63333 7.76638 7.5507 7.71888 7.48336 7.65348L5.62922 5.85489C4.50633 7.47559 3.9375 9.07801 3.9375 10.6249C3.9375 11.9675 4.47087 13.2552 5.42027 14.2046C6.36967 15.154 7.65734 15.6874 9 15.6874C10.3427 15.6874 11.6303 15.154 12.5797 14.2046C13.5291 13.2552 14.0625 11.9675 14.0625 10.6249Z" fill="#EE6A0B"/>
</svg>
