<svg width="32" height="32" viewBox="0 0 32 32" fill="none" xmlns="http://www.w3.org/2000/svg">
<path d="M9.00001 11.0001V5.00011C9.00001 4.73489 9.10537 4.48054 9.2929 4.293C9.48044 4.10547 9.73479 4.00011 10 4.00011C10.2652 4.00011 10.5196 4.10547 10.7071 4.293C10.8947 4.48054 11 4.73489 11 5.00011V11.0001C11 11.2653 10.8947 11.5197 10.7071 11.7072C10.5196 11.8948 10.2652 12.0001 10 12.0001C9.73479 12.0001 9.48044 11.8948 9.2929 11.7072C9.10537 11.5197 9.00001 11.2653 9.00001 11.0001ZM27 5.00011V28.0001C27 28.2653 26.8947 28.5197 26.7071 28.7072C26.5196 28.8948 26.2652 29.0001 26 29.0001C25.7348 29.0001 25.4804 28.8948 25.2929 28.7072C25.1054 28.5197 25 28.2653 25 28.0001V22.0001H19C18.7348 22.0001 18.4804 21.8948 18.2929 21.7072C18.1054 21.5197 18 21.2653 18 21.0001C18.0464 18.6047 18.349 16.2211 18.9025 13.8901C20.125 8.82886 22.4425 5.43636 25.6063 4.08136C25.7583 4.01622 25.9242 3.98983 26.0889 4.00454C26.2537 4.01925 26.4123 4.07461 26.5504 4.16566C26.6885 4.25671 26.8019 4.3806 26.8803 4.52623C26.9588 4.67186 26.9999 4.83468 27 5.00011ZM25 6.73761C20.9788 9.80886 20.1913 17.2901 20.0375 20.0001H25V6.73761ZM14.9863 4.83636C14.9667 4.70505 14.9211 4.57896 14.8523 4.46544C14.7835 4.35191 14.6927 4.25323 14.5854 4.17515C14.478 4.09706 14.3562 4.04114 14.227 4.01064C14.0977 3.98014 13.9638 3.97567 13.8328 3.99749C13.7018 4.01932 13.5766 4.067 13.4642 4.13776C13.3519 4.20852 13.2548 4.30093 13.1785 4.40962C13.1023 4.51831 13.0485 4.64108 13.0202 4.7708C12.9919 4.90051 12.9897 5.03455 13.0138 5.16511L14 11.0789C14 12.1397 13.5786 13.1571 12.8284 13.9073C12.0783 14.6574 11.0609 15.0789 10 15.0789C8.93914 15.0789 7.92173 14.6574 7.17158 13.9073C6.42144 13.1571 6.00001 12.1397 6.00001 11.0789L6.98501 5.16511C7.00907 5.03455 7.00689 4.90051 6.9786 4.7708C6.95031 4.64108 6.89648 4.51831 6.82024 4.40962C6.744 4.30093 6.64688 4.20852 6.53455 4.13776C6.42222 4.067 6.29692 4.01932 6.16597 3.99749C6.03501 3.97567 5.90103 3.98014 5.77182 4.01064C5.64261 4.04114 5.52077 4.09706 5.4134 4.17515C5.30603 4.25323 5.21529 4.35191 5.14646 4.46544C5.07763 4.57896 5.03209 4.70505 5.01251 4.83636L4.01251 10.8364C4.00395 10.8905 3.99977 10.9453 4.00001 11.0001C4.00201 12.4174 4.50491 13.7883 5.41984 14.8707C6.33478 15.9531 7.60286 16.6772 9.00001 16.9151V28.0001C9.00001 28.2653 9.10537 28.5197 9.2929 28.7072C9.48044 28.8948 9.73479 29.0001 10 29.0001C10.2652 29.0001 10.5196 28.8948 10.7071 28.7072C10.8947 28.5197 11 28.2653 11 28.0001V16.9151C12.3972 16.6772 13.6652 15.9531 14.5802 14.8707C15.4951 13.7883 15.998 12.4174 16 11.0001C15.9998 10.9452 15.9952 10.8905 15.9863 10.8364L14.9863 4.83636Z" fill="#D49E2B"/>
</svg>
