<svg width="293" height="119" viewBox="0 0 293 119" fill="none" xmlns="http://www.w3.org/2000/svg">
<path d="M64.0156 76.875V33.375H67.3906V76.875C67.3906 81.625 65.5156 85.6875 61.7656 89.0625C58.0156 92.4375 53.5156 94.125 48.2656 94.125C43.0156 94.125 38.5156 92.4375 34.7656 89.0625C31.0156 85.6875 29.1406 81.625 29.1406 76.875V33.375H32.5156V76.875C32.5156 80.6875 34.0469 83.9531 37.1094 86.6719C40.2031 89.3906 43.9219 90.75 48.2656 90.75C52.6094 90.75 56.3125 89.3906 59.375 86.6719C62.4688 83.9531 64.0156 80.6875 64.0156 76.875ZM70.7656 76.875V33.375H74.1406V76.875C74.1406 80.125 73.4531 83.2344 72.0781 86.2031C70.7031 89.1406 68.8594 91.6875 66.5469 93.8438C64.2344 96 61.4844 97.7188 58.2969 99C55.1094 100.25 51.7656 100.875 48.2656 100.875C44.7656 100.875 41.4219 100.25 38.2344 99C35.0469 97.7188 32.2969 96 29.9844 93.8438C27.6719 91.6875 25.8281 89.1406 24.4531 86.2031C23.0781 83.2344 22.3906 80.125 22.3906 76.875V33.375H25.7656V76.875C25.7656 80.5938 26.7656 84.0469 28.7656 87.2344C30.7969 90.3906 33.5312 92.8906 36.9688 94.7344C40.4375 96.5781 44.2031 97.5 48.2656 97.5C52.3281 97.5 56.0781 96.5781 59.5156 94.7344C62.9844 92.8906 65.7188 90.3906 67.7188 87.2344C69.75 84.0469 70.7656 80.5938 70.7656 76.875ZM77.5156 76.875V33.375H80.8906V76.875C80.8906 81.0312 80.0156 85.0156 78.2656 88.8281C76.5469 92.6094 74.2344 95.875 71.3281 98.625C68.4219 101.375 64.9531 103.562 60.9219 105.188C56.8906 106.812 52.6719 107.625 48.2656 107.625C43.8594 107.625 39.6406 106.812 35.6094 105.188C31.5781 103.562 28.1094 101.375 25.2031 98.625C22.2969 95.875 19.9688 92.6094 18.2188 88.8281C16.5 85.0156 15.6406 81.0312 15.6406 76.875V33.375H19.0156V76.875C19.0156 81.8125 20.3281 86.3906 22.9531 90.6094C25.5781 94.7969 29.125 98.125 33.5938 100.594C38.0938 103.031 42.9844 104.25 48.2656 104.25C53.5469 104.25 58.4219 103.031 62.8906 100.594C67.3906 98.125 70.9531 94.7969 73.5781 90.6094C76.2031 86.3906 77.5156 81.8125 77.5156 76.875ZM84.2656 76.875V33.375H87.6406V76.875C87.6406 83.625 85.875 89.8906 82.3438 95.6719C78.8125 101.422 74.0156 105.984 67.9531 109.359C61.9219 112.703 55.3594 114.375 48.2656 114.375C41.1719 114.375 34.5938 112.703 28.5312 109.359C22.5 105.984 17.7188 101.422 14.1875 95.6719C10.6562 89.8906 8.89062 83.625 8.89062 76.875V33.375H12.2656V76.875C12.2656 81.4688 13.2188 85.875 15.125 90.0938C17.0312 94.3125 19.5938 97.9531 22.8125 101.016C26.0312 104.047 29.8594 106.469 34.2969 108.281C38.7656 110.094 43.4219 111 48.2656 111C53.1094 111 57.75 110.094 62.1875 108.281C66.6562 106.469 70.5 104.047 73.7188 101.016C76.9375 97.9531 79.5 94.3125 81.4062 90.0938C83.3125 85.875 84.2656 81.4688 84.2656 76.875Z" fill="#ABD84D"/>
<path d="M101.876 84.2076C102.912 84.2076 103.628 84.5181 104.026 85.1392C104.44 85.7603 104.647 86.6202 104.647 87.7191V108C104.329 108.064 103.955 108.111 103.525 108.143C103.095 108.175 102.657 108.191 102.211 108.191C101.765 108.191 101.327 108.175 100.897 108.143C100.467 108.111 100.077 108.064 99.7265 108V84.5181L100.037 84.2076H101.876ZM118.55 102.96C118.55 103.788 118.606 104.576 118.717 105.325C118.845 106.057 119.06 106.702 119.362 107.259C118.996 107.562 118.534 107.809 117.977 108C117.42 108.207 116.846 108.311 116.257 108.311C115.286 108.311 114.601 108.048 114.203 107.522C113.82 106.997 113.629 106.216 113.629 105.181V93.0222C113.629 91.4138 113.422 90.2512 113.008 89.5346C112.594 88.802 111.806 88.4357 110.643 88.4357C109.847 88.4357 108.979 88.6268 108.04 89.009C107.116 89.3912 106.24 89.9407 105.412 90.6573C104.584 91.358 103.915 92.1782 103.405 93.1178V88.388C104.472 87.1617 105.778 86.1266 107.323 85.2825C108.868 84.4225 110.5 83.9926 112.22 83.9926C113.717 83.9926 114.927 84.3429 115.851 85.0436C116.775 85.7284 117.451 86.6601 117.881 87.8385C118.327 89.017 118.55 90.3468 118.55 91.8278V102.96ZM134.216 104.297C134.343 104.648 134.439 105.038 134.503 105.468C134.582 105.898 134.622 106.336 134.622 106.782C134.622 106.957 134.614 107.14 134.598 107.331C134.598 107.522 134.566 107.697 134.503 107.857C133.961 107.936 133.308 108.016 132.544 108.096C131.795 108.175 131.095 108.215 130.442 108.215C128.897 108.215 127.726 107.809 126.93 106.997C126.134 106.169 125.736 104.934 125.736 103.294V73.1713L126.046 72.8607H127.91C128.945 72.8607 129.645 73.1156 130.012 73.6252C130.378 74.1189 130.561 74.9151 130.561 76.014V102.195C130.561 103.597 131.19 104.297 132.448 104.297H134.216ZM158.399 96.1993C158.399 98.6359 158.009 100.794 157.229 102.673C156.448 104.536 155.294 105.993 153.765 107.044C152.236 108.096 150.333 108.621 148.056 108.621C145.794 108.621 143.899 108.088 142.37 107.021C140.842 105.954 139.687 104.488 138.907 102.625C138.142 100.746 137.76 98.6041 137.76 96.1993C137.76 93.7787 138.15 91.6367 138.93 89.7735C139.711 87.9102 140.865 86.453 142.394 85.402C143.923 84.335 145.81 83.8015 148.056 83.8015C150.349 83.8015 152.26 84.335 153.789 85.402C155.334 86.453 156.488 87.9102 157.253 89.7735C158.017 91.6367 158.399 93.7787 158.399 96.1993ZM142.848 96.1993C142.848 97.6804 142.999 99.0818 143.302 100.404C143.605 101.725 144.138 102.8 144.902 103.628C145.667 104.441 146.734 104.847 148.103 104.847C149.473 104.847 150.532 104.441 151.281 103.628C152.029 102.8 152.555 101.725 152.857 100.404C153.16 99.0818 153.311 97.6804 153.311 96.1993C153.311 94.7183 153.16 93.3168 152.857 91.995C152.555 90.6732 152.029 89.5983 151.281 88.7702C150.532 87.942 149.473 87.528 148.103 87.528C146.734 87.528 145.667 87.942 144.902 88.7702C144.138 89.5983 143.605 90.6732 143.302 91.995C142.999 93.3168 142.848 94.7183 142.848 96.1993ZM176.675 93.5239C176.723 92.4887 176.627 91.5252 176.388 90.6334C176.165 89.7257 175.743 88.9931 175.122 88.4357C174.517 87.8624 173.633 87.5758 172.471 87.5758C170.958 87.5758 169.779 88.3083 168.935 89.7735C168.107 91.2227 167.693 93.4124 167.693 96.3427C167.693 99.2092 168.163 101.303 169.103 102.625C170.058 103.931 171.388 104.584 173.092 104.584C174.175 104.584 175.202 104.337 176.173 103.843C177.161 103.35 178.068 102.784 178.897 102.147C179.327 102.418 179.749 102.848 180.163 103.437C180.593 104.011 180.863 104.568 180.975 105.11C179.892 106.161 178.61 107.013 177.129 107.666C175.648 108.303 174.047 108.621 172.327 108.621C170.623 108.621 169.158 108.295 167.932 107.642C166.706 106.989 165.694 106.097 164.898 104.966C164.118 103.82 163.537 102.506 163.154 101.025C162.772 99.5436 162.581 97.983 162.581 96.3427C162.581 94.129 162.86 92.2339 163.417 90.6573C163.975 89.0648 164.731 87.7669 165.687 86.7636C166.642 85.7443 167.709 84.9959 168.888 84.5181C170.082 84.0403 171.316 83.8015 172.59 83.8015C174.039 83.8015 175.305 84.0164 176.388 84.4464C177.471 84.8764 178.371 85.4497 179.088 86.1664C179.82 86.8671 180.362 87.6395 180.712 88.4835C181.062 89.3275 181.238 90.1636 181.238 90.9917C181.238 91.8358 181.039 92.5046 180.64 92.9983C180.242 93.492 179.605 93.7389 178.729 93.7389C178.331 93.7389 177.973 93.7229 177.654 93.6911C177.336 93.6592 177.009 93.6035 176.675 93.5239ZM191.59 108C191.255 108.064 190.873 108.111 190.443 108.143C190.029 108.175 189.591 108.191 189.129 108.191C188.237 108.191 187.441 108.127 186.74 108V73.1713L187.051 72.8607H188.914C189.949 72.8607 190.65 73.1156 191.016 73.6252C191.399 74.1189 191.59 74.9151 191.59 76.014V108ZM203.892 103.055C204.274 104.027 204.641 104.815 204.991 105.42C205.341 106.025 205.739 106.487 206.185 106.806C205.835 107.22 205.357 107.578 204.752 107.881C204.147 108.167 203.518 108.311 202.865 108.311C201.989 108.311 201.344 108.08 200.93 107.618C200.516 107.156 200.126 106.463 199.759 105.54L197.824 100.857C197.331 99.6153 196.805 98.7872 196.248 98.3731C195.69 97.9432 194.862 97.7282 193.764 97.7282C193.302 97.7282 192.832 97.7441 192.354 97.7759C191.876 97.8078 191.359 97.8556 190.801 97.9193L189.081 98.0865V94.5033H195.46C197.195 94.5033 198.589 94.8616 199.64 95.5782C200.707 96.2949 201.583 97.4734 202.268 99.1137L203.892 103.055ZM199.449 92.9744C198.796 94.0574 197.992 94.8377 197.036 95.3155C196.081 95.7932 194.918 96.0321 193.549 96.0321H189.583V93.7866L193.19 93.6433C193.461 93.6433 193.676 93.5876 193.835 93.4761C194.01 93.3646 194.178 93.1894 194.337 92.9506L198.517 86.3336C198.915 85.6647 199.345 85.1551 199.807 84.8047C200.285 84.4385 200.938 84.2553 201.766 84.2553C202.26 84.2553 202.706 84.2633 203.104 84.2792C203.502 84.2792 203.924 84.2951 204.37 84.327L204.656 84.7092L199.449 92.9744ZM208.07 84.7331C208.628 84.4783 209.137 84.3031 209.599 84.2076C210.077 84.112 210.531 84.0642 210.961 84.0642C211.614 84.0642 212.123 84.2155 212.489 84.5181C212.856 84.8207 213.111 85.3382 213.254 86.0708L215.428 95.9843C215.746 97.4654 216.041 98.9305 216.312 100.38C216.598 101.829 216.821 103.007 216.98 103.915C217.028 104.186 217.156 104.321 217.363 104.321L221.376 84.542C221.774 84.4464 222.284 84.3827 222.905 84.3509C223.526 84.3031 223.996 84.2792 224.314 84.2792C224.68 84.2792 225.174 84.3031 225.795 84.3509C226.432 84.3827 226.926 84.4464 227.276 84.542L231.146 103.915C231.21 104.186 231.337 104.321 231.528 104.321C231.815 102.936 232.094 101.558 232.364 100.189C232.651 98.8031 232.954 97.4017 233.272 95.9843L235.876 84.3987C236.147 84.335 236.473 84.2872 236.855 84.2553C237.237 84.2235 237.612 84.2076 237.978 84.2076C238.36 84.2076 238.782 84.2394 239.244 84.3031C239.722 84.3509 240.12 84.4464 240.438 84.5898L240.606 84.8286L234.801 108.024C234.307 108.104 233.71 108.151 233.009 108.167C232.309 108.199 231.664 108.215 231.074 108.215C230.119 108.215 229.362 108.064 228.805 107.761C228.248 107.459 227.857 106.726 227.634 105.563L226.249 98.9226C226.106 98.0785 225.93 97.1071 225.723 96.0082C225.516 94.8934 225.301 93.7309 225.078 92.5206C224.871 91.3102 224.656 90.1397 224.433 89.009H224.195C224.003 90.1397 223.788 91.3102 223.55 92.5206C223.311 93.715 223.08 94.8696 222.857 95.9843C222.634 97.0832 222.435 98.0546 222.26 98.8987L220.301 108C219.759 108.08 219.114 108.135 218.366 108.167C217.633 108.199 216.964 108.215 216.359 108.215C215.515 108.215 214.815 108.056 214.257 107.737C213.7 107.419 213.294 106.678 213.039 105.516L208.07 84.7331ZM243.133 101.598C243.133 99.7666 243.531 98.2696 244.327 97.1071C245.139 95.9286 246.23 95.0607 247.6 94.5033C248.985 93.9459 250.546 93.6672 252.282 93.6672C253.158 93.6672 254.161 93.707 255.292 93.7866C256.422 93.8663 257.473 94.0176 258.445 94.2405V97.5609C257.585 97.3539 256.621 97.2265 255.554 97.1787C254.503 97.115 253.516 97.0832 252.592 97.0832C251.143 97.0832 250.02 97.4574 249.224 98.2059C248.428 98.9385 248.03 99.9497 248.03 101.24C248.03 102.211 248.308 103.039 248.866 103.724C249.423 104.393 250.219 104.727 251.254 104.727C252.417 104.727 253.643 104.321 254.933 103.509C256.223 102.697 257.314 101.502 258.206 99.9259L258.97 103.7C258.397 104.369 257.688 105.086 256.844 105.85C256 106.614 255.021 107.267 253.906 107.809C252.807 108.35 251.557 108.621 250.156 108.621C248.579 108.621 247.265 108.271 246.214 107.57C245.179 106.869 244.407 105.985 243.897 104.918C243.387 103.836 243.133 102.729 243.133 101.598ZM263.055 105.802C262.944 106.248 262.705 106.726 262.338 107.236C261.988 107.729 261.614 108.104 261.216 108.358C260.212 108.151 259.4 107.777 258.779 107.236C258.158 106.694 257.696 106.049 257.394 105.301C257.091 104.536 256.908 103.732 256.844 102.888V92.1145C256.844 90.6175 256.502 89.5425 255.817 88.8896C255.148 88.2207 254.193 87.8863 252.951 87.8863C251.756 87.8863 250.522 88.0694 249.248 88.4357C247.974 88.802 246.7 89.232 245.426 89.7257C245.044 89.3275 244.717 88.7861 244.446 88.1013C244.192 87.4006 244.048 86.7317 244.016 86.0947C244.908 85.7125 245.912 85.3542 247.026 85.0197C248.157 84.6853 249.32 84.4225 250.514 84.2314C251.708 84.0244 252.847 83.9209 253.93 83.9209C255.507 83.9209 256.876 84.2076 258.039 84.7809C259.201 85.3542 260.101 86.2301 260.738 87.4085C261.391 88.587 261.717 90.092 261.717 91.9234V101.717C261.717 102.609 261.805 103.398 261.98 104.082C262.155 104.751 262.514 105.325 263.055 105.802ZM280.142 107.236C279.441 109.672 278.669 111.719 277.825 113.375C276.997 115.031 275.93 116.289 274.624 117.149C273.318 118.009 271.606 118.439 269.488 118.439C268.739 118.439 267.911 118.351 267.003 118.176C266.112 118.017 265.419 117.85 264.925 117.675C264.877 117.085 264.957 116.44 265.164 115.74C265.387 115.055 265.658 114.521 265.976 114.139C266.358 114.267 266.884 114.394 267.553 114.521C268.238 114.649 268.898 114.713 269.536 114.713C270.603 114.713 271.486 114.474 272.187 113.996C272.904 113.518 273.501 112.833 273.979 111.942C274.472 111.05 274.894 110.007 275.245 108.812L275.412 108.239C274.425 108.207 273.636 108.016 273.047 107.666C272.458 107.299 272.012 106.638 271.709 105.683L265.451 84.8047C266.008 84.534 266.542 84.3429 267.051 84.2314C267.577 84.12 268.039 84.0642 268.437 84.0642C269.026 84.0642 269.528 84.2155 269.942 84.5181C270.372 84.8048 270.698 85.386 270.921 86.2619L274.146 97.2504C274.385 97.983 274.608 98.7792 274.815 99.6392C275.038 100.499 275.245 101.335 275.436 102.147C275.643 102.944 275.81 103.652 275.937 104.273C276.001 104.496 276.152 104.608 276.391 104.608L281.623 84.3987C281.925 84.335 282.268 84.2872 282.65 84.2553C283.032 84.2235 283.399 84.2076 283.749 84.2076C284.179 84.2076 284.609 84.2314 285.039 84.2792C285.469 84.327 285.883 84.4146 286.281 84.542L286.448 84.8286L280.142 107.236Z" fill="#364156"/>
</svg>
