<svg width="164" height="169" viewBox="0 0 164 169" fill="none" xmlns="http://www.w3.org/2000/svg">
<path d="M162.454 103.989C157.808 128.047 144.409 145.33 123.985 157.431C107.801 167.019 90.0421 170.192 71.6308 168.036C31.0076 163.279 -0.523854 129.707 0.00659508 89.8874C0.377093 62.0743 0.0780138 34.2523 0.0780138 6.43428C0.0780138 4.63764 0.0780138 2.84101 0.0780138 1.1499C7.37696 -0.386605 7.58889 -0.224594 7.58956 6.59634C7.5923 34.4144 8.09209 62.2439 7.45266 90.0473C6.78735 118.975 27.1141 145.856 52.742 155.567C82.2206 166.736 109.165 161.968 132.93 141.942C148.517 128.808 156.304 111.125 156.432 90.5537C156.605 62.7367 156.478 34.9179 156.48 7.09984C156.48 5.12456 156.48 3.14927 156.48 0.784855C158.943 0.784855 160.987 0.784855 163.706 0.784855C163.706 2.80214 163.706 4.75023 163.706 6.69833C163.706 33.8501 163.766 61.002 163.654 88.1533C163.633 93.2925 162.932 98.4289 162.454 103.989Z" fill="#AFDA56"/>
<path d="M126.963 128.485C136.973 117.104 142.526 104.572 142.303 89.3438C141.896 61.6862 142.187 34.0183 142.187 6.3548C142.187 4.57088 142.187 2.78695 142.187 0.695843C144.879 0.695843 146.974 0.695843 149.873 0.695843C149.873 2.52342 149.873 4.27805 149.872 6.03268C149.872 33.3629 149.576 60.6972 149.941 88.0225C150.504 130.066 112.24 159.457 72.5513 153.817C51.2093 150.784 34.6121 140.555 23.0382 122.392C16.8342 112.656 13.681 101.796 13.5897 90.3282C13.3588 61.3333 13.5157 32.3354 13.5298 3.3387C13.5301 2.69 13.6803 2.04137 13.8328 0.808849C16.0394 0.666057 18.228 0.524434 21.1334 0.336426C21.1334 2.77903 21.1334 4.71979 21.1334 6.66054C21.1336 33.9908 21.4096 61.3245 21.0629 88.6504C20.648 121.362 48.2815 145.894 77.8247 146.942C96.8453 147.618 113.112 142.04 126.963 128.485Z" fill="#B2DB5C"/>
<path d="M35.717 41.5448C35.717 57.2085 36.591 72.4345 35.5141 87.5213C33.8704 110.549 51.7062 127.494 70.9495 132.158C89.3747 136.624 114.88 128.102 124.402 107.769C126.925 102.382 128.196 95.941 128.283 89.9584C128.681 62.303 128.459 34.6386 128.459 6.97738C128.459 5.00715 128.459 3.03692 128.459 0.728399C131.008 0.728399 133.069 0.728399 135.765 0.728399C135.765 2.84565 135.765 4.7986 135.765 6.75155C135.765 33.7462 135.28 60.7522 135.909 87.7322C136.481 112.299 119.263 132.754 96.4147 138.649C71.992 144.95 46.2367 135.104 33.9622 113.206C30.8931 107.73 28.5694 101.03 28.4524 94.8438C27.8693 64.0279 28.1352 33.196 28.1215 2.36966C28.1213 1.90473 28.3669 1.43968 28.4862 1.01612C35.4906 -0.348738 35.7141 -0.178442 35.7164 6.55176C35.7203 18.0494 35.7174 29.5471 35.717 41.5448Z" fill="#B0DB58"/>
<path d="M121.792 24.5448C121.792 45.7083 121.024 66.4078 121.989 87.0261C123.163 112.108 100.019 129.652 75.8342 126.015C60.2116 123.665 49.1239 115.628 43.5905 100.695C42.4154 97.5245 42.1643 93.8677 42.151 90.4322C42.0418 62.1037 42.083 33.7745 42.0938 5.44551C42.096 -0.31907 42.3927 -0.516062 49.0771 0.727232C49.0771 2.42855 49.0771 4.22112 49.0771 6.01369C49.0771 33.5095 49.062 61.0053 49.0828 88.501C49.0952 104.986 61.9633 118.083 78.4782 118.877C92.7943 119.565 104.516 115.169 111.453 102.04C113.368 98.416 114.093 93.785 114.127 89.6059C114.353 61.4454 114.275 33.2821 114.204 5.11996C114.196 2.09513 114.406 -0.124964 118.298 0.00546122C120.826 0.0901512 121.874 0.929515 121.829 3.54855C121.714 10.3789 121.791 17.2125 121.792 24.5448Z" fill="#B3DC5D"/>
</svg>
