<svg width="64" height="64" viewBox="0 0 64 64" fill="none" xmlns="http://www.w3.org/2000/svg">
<path fill-rule="evenodd" clip-rule="evenodd" d="M30.7873 28.2748L35.9304 26.199L41.1236 29.4502L37.3604 36.753L29.3322 33.9769L30.7873 28.2748Z" fill="#242E39" stroke="#242E39" stroke-width="1.935" stroke-miterlimit="10" stroke-linecap="square"/>
<path fill-rule="evenodd" clip-rule="evenodd" d="M39.0914 14.6196L42.6288 13.144L46.1662 15.4449L43.6072 20.6219L38.1882 18.6711L39.0914 14.6196Z" fill="#242E39" stroke="#242E39" stroke-width="1.935" stroke-miterlimit="10" stroke-linecap="square"/>
<path fill-rule="evenodd" clip-rule="evenodd" d="M38.3639 28.1497L41.7006 19.5465L40.4462 19.0713L37.1095 27.6746L38.3639 28.1497Z" fill="#242E39"/>
<path fill-rule="evenodd" clip-rule="evenodd" d="M27.4254 42.0299L30.6367 34.327L29.3823 33.8018L26.171 41.5047L27.4254 42.0299Z" fill="#242E39"/>
<path fill-rule="evenodd" clip-rule="evenodd" d="M31.0882 29.4752L24.0134 28.0247L23.7374 29.3252L30.8123 30.8007L31.0882 29.4752Z" fill="#242E39"/>
<path fill-rule="evenodd" clip-rule="evenodd" d="M23.6622 37.6782L18.0675 40.1792L16.5623 47.0068L25.7194 50.0079L29.7586 41.3796L23.6622 37.6782ZM20.4008 42.0299L23.4615 40.6794L26.2965 42.405L24.2643 46.7317L19.6983 45.2311L20.4008 42.0299Z" fill="#242E39"/>
<path fill-rule="evenodd" clip-rule="evenodd" d="M23.6622 37.6782L18.0675 40.1792L16.5623 47.0068L25.7194 50.0079L29.7586 41.3796L23.6622 37.6782ZM23.6622 38.6536L28.7049 41.7298L25.2679 48.9325L17.616 46.4065L18.8704 40.7794L23.6622 38.6536ZM23.035 39.8791L19.5979 41.4046L18.6195 45.8063L24.6908 47.8071L27.0491 42.7802L26.2714 43.2804L27.2247 41.9549L23.9633 39.9791C23.8378 39.9041 23.6873 39.829 23.5368 39.829C23.3361 39.804 23.1605 39.829 23.035 39.8791ZM20.3506 42.0299L23.4113 40.6794L26.2463 42.405L24.2142 46.7317L19.6481 45.2311L20.3506 42.0299Z" fill="#242E39"/>
<path fill-rule="evenodd" clip-rule="evenodd" d="M46.1162 25.0236L48.349 24.0732L50.607 25.5488L48.9511 28.8751L45.4137 27.6246L46.0409 25.0236H46.1162Z" fill="#242E39" stroke="#242E39" stroke-width="1.935" stroke-miterlimit="10" stroke-linecap="square"/>
<path fill-rule="evenodd" clip-rule="evenodd" d="M41.2491 30.3005L46.342 27.9496L45.7901 26.7742L40.6721 29.1251L41.2491 30.3005Z" fill="#242E39"/>
<path fill-rule="evenodd" clip-rule="evenodd" d="M21.329 22.5476L12.0464 26.3491L14.9315 33.3517L24.2142 29.5503L21.329 22.5476Z" fill="#242E39"/>
<path fill-rule="evenodd" clip-rule="evenodd" d="M25.9703 30.2756L22.0817 20.8721L10.2902 25.6989L14.204 35.1775L25.9954 30.3507V30.2756H25.9703ZM21.329 22.5727L12.0464 26.3742L14.9315 33.3768L24.2142 29.5754L21.329 22.5727Z" fill="#242E39"/>
<path fill-rule="evenodd" clip-rule="evenodd" d="M37.2851 41.8799H37.1848C36.7583 41.6799 36.3067 41.5298 35.83 41.4298C35.3032 41.3547 34.7763 41.4298 34.2997 41.6048C33.7979 41.7799 33.3714 42.08 33.0202 42.4802C32.8194 42.6552 32.6689 42.8803 32.5435 43.1304C32.4431 43.3805 32.3679 43.6556 32.3679 43.9057C32.3679 44.1808 32.418 44.4559 32.5435 44.681C32.6438 44.9311 32.8194 45.1562 33.0202 45.3312C33.9735 46.1065 39.9696 49.1827 41.3494 50.033L42.7293 52.8091L53.3416 48.2323L51.6356 44.4059C51.7861 43.3555 51.6858 42.2801 51.2844 41.2797C50.7324 39.6541 49.6285 37.6033 48.349 34.5021L48.1985 34.177L47.8975 33.9769C47.3706 33.6268 46.7183 33.4767 46.066 33.5518C45.5893 33.6018 45.1628 33.7768 44.7614 34.052C44.4102 33.8019 44.0088 33.6768 43.5823 33.6518C43.0053 33.6268 42.4282 33.8019 41.9516 34.127L41.8512 34.202C41.4498 33.9769 40.9982 33.8519 40.5466 33.8019C40.0448 33.8019 39.5431 33.9519 39.1166 34.227L38.0127 31.8761L37.9374 31.7761C37.5862 31.3759 37.1346 31.1008 36.6329 31.0008C36.1311 30.8757 35.5791 30.9258 35.1025 31.1258C34.6258 31.3259 34.2244 31.676 33.9484 32.1262C33.6724 32.5764 33.5721 33.1016 33.6223 33.6018V33.7518L37.1095 41.3797L37.2851 41.8799ZM48.324 37.1781C49.5784 39.9792 50.5066 41.7299 50.6321 43.2805C50.5317 41.6548 49.6035 39.9042 48.324 37.1031V37.1781ZM41.9265 35.7026C41.7508 35.5025 41.5251 35.3274 41.2993 35.2024C41.0484 35.0773 40.7975 35.0023 40.5215 34.9773C41.0484 35.0273 41.5251 35.2524 41.9014 35.6276L41.9265 35.7026ZM44.7865 35.6025C44.6862 35.4775 44.5607 35.3524 44.4353 35.2274C44.5607 35.3024 44.6611 35.4025 44.7614 35.5025L44.7865 35.6025ZM34.7262 42.9053H34.676H34.8265H34.7262ZM38.665 43.9557C38.088 43.9557 36.3569 42.9553 35.5791 42.7803C35.3032 42.7302 35.0272 42.7302 34.7512 42.7803C35.0272 42.7302 35.2781 42.7302 35.5541 42.7803C36.3569 42.9053 38.1131 43.9557 38.665 43.9557ZM48.0982 37.0781L47.4208 35.5275C47.6717 36.1528 47.9476 36.703 48.1985 37.2782L48.0982 37.0781ZM44.8367 35.7776C44.8618 35.7276 44.912 35.7026 44.9621 35.6776C44.912 35.7276 44.8618 35.7776 44.8116 35.8276L44.8367 35.7776ZM45.1879 35.4775L45.3385 35.3775C45.2632 35.4275 45.213 35.4775 45.1378 35.5275L45.1879 35.4775ZM45.489 35.2524L45.765 35.1024L45.4639 35.2774L45.489 35.2524ZM42.7795 35.2524C42.4282 35.4275 42.1272 35.6776 41.8763 36.0027C42.077 35.5275 42.4031 35.1274 42.8296 34.8272L42.7795 35.2524ZM42.8296 35.2524H42.9551L42.8045 35.3024L42.8296 35.2524ZM43.5823 35.1524C43.4819 35.1524 43.4067 35.1524 43.3063 35.1524C43.3816 35.1524 43.4819 35.1524 43.5823 35.1524ZM34.7011 33.3017C34.7763 33.0766 34.9269 32.8765 35.1025 32.7014C35.2781 32.5514 35.5039 32.4263 35.7548 32.3763C36.0056 32.3263 36.2314 32.3513 36.4823 32.4263C36.7081 32.5014 36.9088 32.6514 37.0844 32.8265L38.3639 35.5775L37.0844 32.4513C36.9339 32.2513 36.7332 32.1262 36.4823 32.0262C36.2565 31.9512 36.0056 31.9261 35.7548 31.9762C35.5039 32.0262 35.2781 32.1262 35.1025 32.3013C34.9269 32.4764 34.7763 32.6764 34.7011 32.9015V33.3017Z" fill="#242E39"/>
<path d="M40.7975 39.3289L39.1166 35.5525" stroke="#242E39" stroke-width="1.2854" stroke-miterlimit="10" stroke-linecap="square"/>
<path d="M43.7077 38.9288L42.0017 35.0273" stroke="#242E39" stroke-width="1.2854" stroke-miterlimit="10" stroke-linecap="square"/>
<path fill-rule="evenodd" clip-rule="evenodd" d="M46.4925 38.5036L45.3133 35.8776L44.9119 34.9272" fill="#242E39"/>
<path d="M46.4925 38.5036L45.3133 35.8776L44.9119 34.9272" stroke="#242E39" stroke-width="1.2854" stroke-miterlimit="10" stroke-linecap="square"/>
<path fill-rule="evenodd" clip-rule="evenodd" d="M31.1636 26.099L36.2816 24.0232L41.4749 27.2744L37.7367 34.6022L29.7085 31.8262L31.1636 26.099Z" fill="#D7FF82"/>
<path fill-rule="evenodd" clip-rule="evenodd" d="M36.3818 23.0728L30.4861 25.4236L28.755 32.2512L38.1882 35.5275L42.6037 26.8992L36.3818 23.0728ZM31.866 26.6991L36.2062 24.9485L40.396 27.5495L37.3352 33.5517L30.7119 31.2008L31.8911 26.6241L31.866 26.6991Z" fill="#242E39"/>
<path fill-rule="evenodd" clip-rule="evenodd" d="M39.518 12.5188L43.0052 11.0432L46.5427 13.3191L44.0088 18.496L38.5646 16.5453L39.518 12.5188Z" fill="#ABD84D" stroke="#242E39" stroke-width="1.935" stroke-miterlimit="10" stroke-linecap="square"/>
<path fill-rule="evenodd" clip-rule="evenodd" d="M38.6901 25.9739L42.0519 17.3956L40.7975 16.9204L37.4357 25.4987L38.6901 25.9739Z" fill="#242E39"/>
<path fill-rule="evenodd" clip-rule="evenodd" d="M27.8018 39.8542L31.0131 32.1513L29.8339 31.6511L26.5724 39.3541L27.8018 39.8542Z" fill="#242E39"/>
<path fill-rule="evenodd" clip-rule="evenodd" d="M31.4647 27.3244L24.3898 25.8489L24.1138 27.1744L31.1887 28.6249L31.4647 27.3244Z" fill="#242E39"/>
<path fill-rule="evenodd" clip-rule="evenodd" d="M24.0386 35.4775L18.4439 37.9785L16.9135 44.8061L26.0958 47.8072L30.135 39.1789L24.0386 35.4775ZM20.7771 39.8542L23.8128 38.4787L26.6477 40.2043L24.6407 44.556L20.0746 43.0554L20.7771 39.8542Z" fill="#52CC83"/>
<path fill-rule="evenodd" clip-rule="evenodd" d="M24.0386 35.4775L18.4439 37.9785L16.9135 44.8061L26.0958 47.8072L30.135 39.1789L24.0386 35.4775ZM23.9633 36.4779L29.006 39.5291L25.6442 46.7318L17.9923 44.2059L19.2467 38.5787L23.9633 36.4779ZM23.4364 37.6534L19.9743 39.204L18.9958 43.6056L25.0672 45.5814L27.6764 39.8292L24.3396 37.7534C24.2142 37.6534 24.0386 37.6033 23.888 37.6033C23.7375 37.5783 23.5619 37.6033 23.4114 37.6784L23.4364 37.6534ZM20.7771 39.8042L23.8128 38.4287L26.6477 40.1543L24.6156 44.481L20.0746 43.0554L20.7771 39.8542V39.8042Z" fill="#242E39"/>
<path fill-rule="evenodd" clip-rule="evenodd" d="M46.4925 22.8478L48.7504 21.8975L51.0084 23.373L49.3776 26.6993L45.8402 25.4488L46.4674 22.8478H46.4925Z" fill="#ABD84D" stroke="#242E39" stroke-width="1.935" stroke-miterlimit="10" stroke-linecap="square"/>
<path fill-rule="evenodd" clip-rule="evenodd" d="M41.6253 28.1247L46.7182 25.7738L46.1411 24.5984L41.0482 26.9493L41.6253 28.1247Z" fill="#242E39"/>
<path fill-rule="evenodd" clip-rule="evenodd" d="M21.7053 20.3967L12.4226 24.2482L15.3078 31.2509L24.5653 27.4494L21.7053 20.3967Z" fill="#52CC83"/>
<path fill-rule="evenodd" clip-rule="evenodd" d="M26.3466 28.1246L22.4579 18.646L10.6665 23.4728L14.5802 32.8764L26.3466 28.1246ZM21.7304 20.3967L12.4226 24.2481L15.3078 31.2508L24.5904 27.4493L21.7304 20.3967Z" fill="#242E39"/>
<path fill-rule="evenodd" clip-rule="evenodd" d="M43.6323 49.1828L42.6037 47.107C42.6037 46.8569 35.1525 43.1305 34.0988 42.2551C33.3211 41.6299 34.5253 40.0543 36.0557 40.2794C36.8836 40.4044 38.8154 41.6299 39.2419 41.3798C39.6433 41.1297 38.4892 38.8038 38.4892 38.8038L35.0772 31.301C35.0522 31.0259 35.1023 30.7258 35.2529 30.4757C35.4034 30.2256 35.6041 30.0255 35.8801 29.9255C36.1309 29.8004 36.432 29.7754 36.708 29.8254C36.9839 29.8754 37.2348 30.0255 37.4355 30.2256L39.2168 34.077C39.2921 33.7019 39.5179 33.3518 39.8189 33.1017C40.12 32.8516 40.4963 32.7015 40.8977 32.6765C41.1737 32.7015 41.4246 32.7765 41.6754 32.9016C41.9263 33.0266 42.127 33.2017 42.3026 33.4268C42.3026 33.4268 43.7327 31.4761 45.1627 33.3017C45.9655 32.5014 46.7433 32.1263 47.7468 32.7015C49.8793 37.8035 51.4849 40.0043 50.8828 42.2802L52.2877 45.4063L43.6323 49.1578V49.1828Z" fill="white"/>
<path fill-rule="evenodd" clip-rule="evenodd" d="M37.6362 39.7041H37.5359C37.1094 39.504 36.6578 39.3289 36.2062 39.2539C35.6794 39.1789 35.1525 39.2289 34.6758 39.404C34.1741 39.579 33.7476 39.8791 33.3963 40.2793C33.1956 40.4544 33.02 40.6795 32.9197 40.9295C32.8193 41.1796 32.744 41.4547 32.744 41.7298C32.744 42.005 32.7942 42.2801 32.9197 42.5302C33.02 42.7802 33.1956 43.0053 33.3963 43.1804C34.3497 43.9557 40.3458 47.0319 41.7256 47.8822L43.1055 50.6582L53.7178 46.0815L52.0118 42.2801C52.1623 41.2297 52.062 40.1543 51.6856 39.1539C51.1337 37.5283 50.0298 35.4775 48.7503 32.3763L48.6249 32.0512L48.3238 31.8761C47.797 31.526 47.1447 31.3509 46.4924 31.4259C46.0157 31.501 45.5892 31.676 45.1878 31.9511C44.8366 31.701 44.4351 31.576 44.0086 31.526C43.4316 31.501 42.8546 31.676 42.3779 32.0012L42.2776 32.0762C41.8761 31.8261 41.4246 31.701 40.973 31.676C40.4461 31.676 39.9444 31.8261 39.5179 32.1012L38.4391 29.7503L38.3638 29.6503C38.0126 29.2501 37.561 28.975 37.0341 28.85C36.5073 28.7249 35.9804 28.7999 35.4787 29C35.002 29.2251 34.6006 29.6002 34.3246 30.0504C34.0737 30.5256 33.9734 31.0508 34.0486 31.576V31.726L37.5108 39.3539L37.6362 39.7041ZM43.6323 49.1827L42.6037 47.1069C42.6037 46.8568 35.1525 43.1304 34.0988 42.2551C33.3211 41.6298 34.5253 40.0542 36.0557 40.2793C36.8836 40.4043 38.8154 41.6298 39.2419 41.3797C39.6433 41.1296 38.4892 38.8037 38.4892 38.8037L35.0772 31.3009C35.0522 31.0258 35.1023 30.7257 35.2529 30.4756C35.4034 30.2255 35.6041 30.0254 35.8801 29.9254C36.1309 29.8003 36.432 29.7753 36.708 29.8253C36.9839 29.8753 37.2348 30.0254 37.4355 30.2255L39.2168 34.0769C39.2921 33.7018 39.5179 33.3517 39.8189 33.1016C40.12 32.8515 40.4963 32.7014 40.8977 32.6764C41.1737 32.7014 41.4246 32.7764 41.6754 32.9015C41.9263 33.0265 42.127 33.2016 42.3026 33.4267C42.3026 33.4267 43.7327 31.476 45.1627 33.3016C45.9655 32.5013 46.7433 32.1262 47.7468 32.7014C49.8793 37.8034 51.4849 40.0042 50.8828 42.2801L52.2877 45.4062L43.6323 49.1327V49.1827Z" fill="#242E39"/>
<path fill-rule="evenodd" clip-rule="evenodd" d="M41.8762 37.4533L39.7437 32.6765L38.7401 33.1267L40.8977 37.9035L41.8762 37.4533Z" fill="#242E39"/>
<path fill-rule="evenodd" clip-rule="evenodd" d="M44.7865 37.053L42.6289 32.1511L41.6254 32.5763L43.783 37.4781L44.7865 37.053Z" fill="#242E39"/>
<path fill-rule="evenodd" clip-rule="evenodd" d="M46.8688 36.3528L45.6897 33.7268L45.2632 32.7515" fill="#FAA2A2"/>
<path fill-rule="evenodd" clip-rule="evenodd" d="M47.5963 36.628L46.1914 33.5018L45.5642 32.0513L44.5607 32.4764L45.1879 33.927L46.5928 37.0532L47.5963 36.628Z" fill="#242E39"/>
</svg>
