<svg width="28" height="28" viewBox="0 0 28 28" fill="none" xmlns="http://www.w3.org/2000/svg">
<path d="M19.0613 11.0612L16.125 14L19.065 16.9387C19.3468 17.2205 19.5051 17.6027 19.5051 18.0012C19.5051 18.3998 19.3468 18.782 19.065 19.0637C18.7832 19.3455 18.401 19.5039 18.0025 19.5039C17.604 19.5039 17.2218 19.3455 16.94 19.0637L14 16.125L11.0613 19.065C10.7795 19.3468 10.3973 19.5051 9.99876 19.5051C9.60024 19.5051 9.21805 19.3468 8.93626 19.065C8.65446 18.7832 8.49615 18.401 8.49615 18.0025C8.49615 17.604 8.65446 17.2218 8.93626 16.94L11.875 14L8.93876 11.0612C8.79923 10.9217 8.68855 10.7561 8.61303 10.5738C8.53752 10.3915 8.49865 10.1961 8.49865 9.99875C8.49865 9.60023 8.65696 9.21804 8.93876 8.93625C9.22055 8.65446 9.60274 8.49615 10.0013 8.49615C10.3998 8.49615 10.782 8.65446 11.0638 8.93625L14 11.875L16.9388 8.935C17.2205 8.65321 17.6027 8.4949 18.0013 8.4949C18.3998 8.4949 18.782 8.65321 19.0638 8.935C19.3455 9.21679 19.5039 9.59899 19.5039 9.9975C19.5039 10.396 19.3455 10.7782 19.0638 11.06L19.0613 11.0612ZM27.5 14C27.5 16.67 26.7082 19.2801 25.2248 21.5002C23.7414 23.7203 21.633 25.4506 19.1662 26.4724C16.6994 27.4942 13.985 27.7615 11.3663 27.2406C8.74754 26.7197 6.34207 25.434 4.45406 23.5459C2.56606 21.6579 1.28031 19.2525 0.759405 16.6337C0.238504 14.015 0.505849 11.3006 1.52763 8.83377C2.54942 6.36697 4.27974 4.25856 6.49981 2.77516C8.71987 1.29176 11.33 0.5 14 0.5C17.5792 0.50397 21.0107 1.92756 23.5416 4.45844C26.0724 6.98932 27.496 10.4208 27.5 14ZM24.5 14C24.5 11.9233 23.8842 9.89323 22.7304 8.16651C21.5767 6.4398 19.9368 5.09399 18.0182 4.29926C16.0996 3.50454 13.9884 3.29661 11.9516 3.70175C9.91476 4.1069 8.04384 5.10693 6.57538 6.57538C5.10693 8.04383 4.10691 9.91475 3.70176 11.9516C3.29662 13.9884 3.50455 16.0996 4.29927 18.0182C5.09399 19.9368 6.4398 21.5767 8.16652 22.7304C9.89323 23.8842 11.9233 24.5 14 24.5C16.7839 24.497 19.4529 23.3898 21.4213 21.4213C23.3898 19.4528 24.497 16.7839 24.5 14Z" fill="#E84A4A"/>
</svg>
