<svg width="32" height="32" viewBox="0 0 32 32" fill="none" xmlns="http://www.w3.org/2000/svg">
<path opacity="0.2" d="M29.7077 10.6575L13.6577 26.7075C13.5648 26.8005 13.4545 26.8743 13.3331 26.9246C13.2117 26.9749 13.0816 27.0008 12.9502 27.0008C12.8187 27.0008 12.6886 26.9749 12.5672 26.9246C12.4458 26.8743 12.3355 26.8005 12.2427 26.7075L3.29266 17.7075C3.10527 17.52 3 17.2658 3 17.0007C3 16.7355 3.10527 16.4813 3.29266 16.2938L6.29266 13.2938C6.38553 13.2008 6.49582 13.127 6.61722 13.0767C6.73862 13.0264 6.86875 13.0005 7.00016 13.0005C7.13158 13.0005 7.2617 13.0264 7.3831 13.0767C7.5045 13.127 7.61479 13.2008 7.70766 13.2938L12.2927 17.7088C12.3855 17.8018 12.4958 17.8755 12.6172 17.9258C12.7386 17.9762 12.8687 18.0021 13.0002 18.0021C13.1316 18.0021 13.2617 17.9762 13.3831 17.9258C13.5045 17.8755 13.6148 17.8018 13.7077 17.7088L25.2927 6.29377C25.3855 6.2008 25.4958 6.12704 25.6172 6.07671C25.7386 6.02639 25.8687 6.00049 26.0002 6.00049C26.1316 6.00049 26.2617 6.02639 26.3831 6.07671C26.5045 6.12704 26.6148 6.2008 26.7077 6.29377L29.7077 9.24377C29.8951 9.43129 30.0003 9.68555 30.0003 9.95065C30.0003 10.2158 29.8951 10.47 29.7077 10.6575Z" fill="#3FD42B"/>
<path d="M30.4102 8.52978L27.4102 5.58478C27.0354 5.21152 26.5279 5.00195 25.9989 5.00195C25.47 5.00195 24.9625 5.21152 24.5877 5.58478L13.0002 16.9998L12.9864 16.986L8.40644 12.5773C8.03067 12.2054 7.52294 11.9974 6.99426 11.9988C6.46559 12.0002 5.95897 12.2109 5.58519 12.5848L2.58519 15.5848C2.21078 15.9598 2.00049 16.468 2.00049 16.9979C2.00049 17.5278 2.21078 18.036 2.58519 18.411L11.5377 27.411C11.7234 27.5968 11.9439 27.7442 12.1866 27.8447C12.4293 27.9452 12.6894 27.997 12.9521 27.997C13.2147 27.997 13.4749 27.9452 13.7175 27.8447C13.9602 27.7442 14.1807 27.5968 14.3664 27.411L30.4164 11.3635C30.6025 11.1773 30.7501 10.9562 30.8505 10.7128C30.9509 10.4694 31.0023 10.2086 31.0018 9.94536C31.0012 9.68208 30.9486 9.42151 30.8471 9.17859C30.7456 8.93567 30.5971 8.71518 30.4102 8.52978ZM12.9527 25.9998L4.00019 16.9998L7.00019 13.9998L7.01394 14.0135L11.5939 18.4223C11.9685 18.7933 12.4743 19.0014 13.0014 19.0014C13.5286 19.0014 14.0344 18.7933 14.4089 18.4223L26.0077 6.99978L29.0002 9.94978L12.9527 25.9998Z" fill="#3FD42B"/>
</svg>
