<svg width="393" height="852" viewBox="0 0 393 852" fill="none" xmlns="http://www.w3.org/2000/svg">
<g clip-path="url(#clip0_321_265)">
<path d="M0 69.1067L7.24867 67.6867C14.5847 66.2667 29.082 63.4267 43.6667 64.8467C58.2513 66.2667 72.7487 71.9467 87.3333 71.9467C101.918 71.9467 116.415 66.2667 131 63.4267C145.585 60.5867 160.082 60.5867 174.667 60.5867C189.251 60.5867 203.749 60.5867 218.333 60.5867C232.918 60.5867 247.415 60.5867 262 63.4267C276.585 66.2667 291.082 71.9467 305.667 73.3667C320.251 74.7867 334.749 71.9467 349.333 70.5267C363.918 69.1067 378.415 69.1067 385.751 69.1067H393V0H385.751C378.415 0 363.918 0 349.333 0C334.749 0 320.251 0 305.667 0C291.082 0 276.585 0 262 0C247.415 0 232.918 0 218.333 0C203.749 0 189.251 0 174.667 0C160.082 0 145.585 0 131 0C116.415 0 101.918 0 87.3333 0C72.7487 0 58.2513 0 43.6667 0C29.082 0 14.5847 0 7.24867 0H0V69.1067Z" fill="#1B232A"/>
<path d="M0 103.187L7.24867 101.767C14.5847 100.347 29.082 97.5067 43.6667 100.347C58.2513 103.187 72.7487 111.707 87.3333 113.127C101.918 114.547 116.415 108.867 131 106.027C145.585 103.187 160.082 103.187 174.667 101.767C189.251 100.347 203.749 97.5067 218.333 97.5067C232.918 97.5067 247.415 100.347 262 103.187C276.585 106.027 291.082 108.867 305.667 108.867C320.251 108.867 334.749 106.027 349.333 104.607C363.918 103.187 378.415 103.187 385.751 103.187H393V67.2134H385.751C378.415 67.2134 363.918 67.2134 349.333 68.6334C334.749 70.0534 320.251 72.8934 305.667 71.4734C291.082 70.0534 276.585 64.3734 262 61.5334C247.415 58.6934 232.918 58.6934 218.333 58.6934C203.749 58.6934 189.251 58.6934 174.667 58.6934C160.082 58.6934 145.585 58.6934 131 61.5334C116.415 64.3734 101.918 70.0534 87.3333 70.0534C72.7487 70.0534 58.2513 64.3734 43.6667 62.9534C29.082 61.5334 14.5847 64.3734 7.24867 65.7934L0 67.2134V103.187Z" fill="#1D252D"/>
<path d="M0 290.627L7.24867 287.787C14.5847 284.947 29.082 279.267 43.6667 276.427C58.2513 273.587 72.7487 273.587 87.3333 277.847C101.918 282.107 116.415 290.627 131 296.307C145.585 301.987 160.082 304.827 174.667 299.147C189.251 293.467 203.749 279.267 218.333 269.327C232.918 259.387 247.415 253.707 262 256.547C276.585 259.387 291.082 270.747 305.667 273.587C320.251 276.427 334.749 270.747 349.333 273.587C363.918 276.427 378.415 287.787 385.751 293.467L393 299.147V101.293H385.751C378.415 101.293 363.918 101.293 349.333 102.713C334.749 104.133 320.251 106.973 305.667 106.973C291.082 106.973 276.585 104.133 262 101.293C247.415 98.4533 232.918 95.6133 218.333 95.6133C203.749 95.6133 189.251 98.4533 174.667 99.8733C160.082 101.293 145.585 101.293 131 104.133C116.415 106.973 101.918 112.653 87.3333 111.233C72.7487 109.813 58.2513 101.293 43.6667 98.4533C29.082 95.6133 14.5847 98.4533 7.24867 99.8733L0 101.293V290.627Z" fill="#1F2831"/>
<path d="M0 426.947L7.24867 429.787C14.5847 432.627 29.082 438.307 43.6667 442.567C58.2513 446.827 72.7487 449.667 87.3333 449.667C101.918 449.667 116.415 446.827 131 449.667C145.585 452.507 160.082 461.027 174.667 461.027C189.251 461.027 203.749 452.507 218.333 448.247C232.918 443.987 247.415 443.987 262 449.667C276.585 455.347 291.082 466.707 305.667 472.387C320.251 478.067 334.749 478.067 349.333 476.647C363.918 475.227 378.415 472.387 385.751 470.967L393 469.547V297.253L385.751 291.573C378.415 285.893 363.918 274.533 349.333 271.693C334.749 268.853 320.251 274.533 305.667 271.693C291.082 268.853 276.585 257.493 262 254.653C247.415 251.813 232.918 257.493 218.333 267.433C203.749 277.373 189.251 291.573 174.667 297.253C160.082 302.933 145.585 300.093 131 294.413C116.415 288.733 101.918 280.213 87.3333 275.953C72.7487 271.693 58.2513 271.693 43.6667 274.533C29.082 277.373 14.5847 283.053 7.24867 285.893L0 288.733V426.947Z" fill="#212A34"/>
<path d="M0 478.067L7.24867 480.907C14.5847 483.747 29.082 489.427 43.6667 492.267C58.2513 495.107 72.7487 495.107 87.3333 495.107C101.918 495.107 116.415 495.107 131 496.527C145.585 497.947 160.082 500.787 174.667 497.947C189.251 495.107 203.749 486.587 218.333 483.747C232.918 480.907 247.415 483.747 262 490.847C276.585 497.947 291.082 509.307 305.667 516.407C320.251 523.507 334.749 526.347 349.333 524.927C363.918 523.507 378.415 517.827 385.751 514.987L393 512.147V467.653L385.751 469.073C378.415 470.493 363.918 473.333 349.333 474.753C334.749 476.173 320.251 476.173 305.667 470.493C291.082 464.813 276.585 453.453 262 447.773C247.415 442.093 232.918 442.093 218.333 446.353C203.749 450.613 189.251 459.133 174.667 459.133C160.082 459.133 145.585 450.613 131 447.773C116.415 444.933 101.918 447.773 87.3333 447.773C72.7487 447.773 58.2513 444.933 43.6667 440.673C29.082 436.413 14.5847 430.733 7.24867 427.893L0 425.053V478.067Z" fill="#232D37"/>
<path d="M0 537.707H7.24867C14.5847 537.707 29.082 537.707 43.6667 540.547C58.2513 543.387 72.7487 549.067 87.3333 551.907C101.918 554.747 116.415 554.747 131 556.167C145.585 557.587 160.082 560.427 174.667 554.747C189.251 549.067 203.749 534.867 218.333 530.607C232.918 526.347 247.415 532.027 262 539.127C276.585 546.227 291.082 554.747 305.667 563.267C320.251 571.787 334.749 580.307 349.333 581.727C363.918 583.147 378.415 577.467 385.751 574.627L393 571.787V510.253L385.751 513.093C378.415 515.933 363.918 521.613 349.333 523.033C334.749 524.453 320.251 521.613 305.667 514.513C291.082 507.413 276.585 496.053 262 488.953C247.415 481.853 232.918 479.013 218.333 481.853C203.749 484.693 189.251 493.213 174.667 496.053C160.082 498.893 145.585 496.053 131 494.633C116.415 493.213 101.918 493.213 87.3333 493.213C72.7487 493.213 58.2513 493.213 43.6667 490.373C29.082 487.533 14.5847 481.853 7.24867 479.013L0 476.173V537.707Z" fill="#27323D"/>
<path d="M0 597.347L7.24867 598.767C14.5847 600.187 29.082 603.027 43.6667 607.287C58.2513 611.547 72.7487 617.227 87.3333 617.227C101.918 617.227 116.415 611.547 131 612.967C145.585 614.387 160.082 622.907 174.667 620.067C189.251 617.227 203.749 603.027 218.333 598.767C232.918 594.507 247.415 600.187 262 605.867C276.585 611.547 291.082 617.227 305.667 624.327C320.251 631.427 334.749 639.947 349.333 641.367C363.918 642.787 378.415 637.107 385.751 634.267L393 631.427V569.893L385.751 572.733C378.415 575.573 363.918 581.253 349.333 579.833C334.749 578.413 320.251 569.893 305.667 561.373C291.082 552.853 276.585 544.333 262 537.233C247.415 530.133 232.918 524.453 218.333 528.713C203.749 532.973 189.251 547.173 174.667 552.853C160.082 558.533 145.585 555.693 131 554.273C116.415 552.853 101.918 552.853 87.3333 550.013C72.7487 547.173 58.2513 541.493 43.6667 538.653C29.082 535.813 14.5847 535.813 7.24867 535.813H0V597.347Z" fill="#2E3946"/>
<path d="M0 648.467L7.24867 649.887C14.5847 651.307 29.082 654.147 43.6667 658.407C58.2513 662.667 72.7487 668.347 87.3333 668.347C101.918 668.347 116.415 662.667 131 662.667C145.585 662.667 160.082 668.347 174.667 665.507C189.251 662.667 203.749 651.307 218.333 647.047C232.918 642.787 247.415 645.627 262 651.307C276.585 656.987 291.082 665.507 305.667 672.607C320.251 679.707 334.749 685.387 349.333 686.807C363.918 688.227 378.415 685.387 385.751 683.967L393 682.547V629.533L385.751 632.373C378.415 635.213 363.918 640.893 349.333 639.473C334.749 638.053 320.251 629.533 305.667 622.433C291.082 615.333 276.585 609.653 262 603.973C247.415 598.293 232.918 592.613 218.333 596.873C203.749 601.133 189.251 615.333 174.667 618.173C160.082 621.013 145.585 612.493 131 611.073C116.415 609.653 101.918 615.333 87.3333 615.333C72.7487 615.333 58.2513 609.653 43.6667 605.393C29.082 601.133 14.5847 598.293 7.24867 596.873L0 595.453V648.467Z" fill="#35414E"/>
<path d="M0 767.747L7.24867 770.587C14.5847 773.427 29.082 779.107 43.6667 780.527C58.2513 781.947 72.7487 779.107 87.3333 774.847C101.918 770.587 116.415 764.907 131 762.067C145.585 759.227 160.082 759.227 174.667 757.807C189.251 756.387 203.749 753.547 218.333 756.387C232.918 759.227 247.415 767.747 262 769.167C276.585 770.587 291.082 764.907 305.667 766.327C320.251 767.747 334.749 776.267 349.333 779.107C363.918 781.947 378.415 779.107 385.751 777.687L393 776.267V680.653L385.751 682.073C378.415 683.493 363.918 686.333 349.333 684.913C334.749 683.493 320.251 677.813 305.667 670.713C291.082 663.613 276.585 655.093 262 649.413C247.415 643.733 232.918 640.893 218.333 645.153C203.749 649.413 189.251 660.773 174.667 663.613C160.082 666.453 145.585 660.773 131 660.773C116.415 660.773 101.918 666.453 87.3333 666.453C72.7487 666.453 58.2513 660.773 43.6667 656.513C29.082 652.253 14.5847 649.413 7.24867 647.993L0 646.573V767.747Z" fill="#3D4957"/>
<path d="M0 852.947H7.24867C14.5847 852.947 29.082 852.947 43.6667 852.947C58.2513 852.947 72.7487 852.947 87.3333 852.947C101.918 852.947 116.415 852.947 131 852.947C145.585 852.947 160.082 852.947 174.667 852.947C189.251 852.947 203.749 852.947 218.333 852.947C232.918 852.947 247.415 852.947 262 852.947C276.585 852.947 291.082 852.947 305.667 852.947C320.251 852.947 334.749 852.947 349.333 852.947C363.918 852.947 378.415 852.947 385.751 852.947H393V774.373L385.751 775.793C378.415 777.213 363.918 780.053 349.333 777.213C334.749 774.373 320.251 765.853 305.667 764.433C291.082 763.013 276.585 768.693 262 767.273C247.415 765.853 232.918 757.333 218.333 754.493C203.749 751.653 189.251 754.493 174.667 755.913C160.082 757.333 145.585 757.333 131 760.173C116.415 763.013 101.918 768.693 87.3333 772.953C72.7487 777.213 58.2513 780.053 43.6667 778.633C29.082 777.213 14.5847 771.533 7.24867 768.693L0 765.853V852.947Z" fill="#445160"/>
</g>
<defs>
<clipPath id="clip0_321_265">
<rect width="393" height="852" fill="white"/>
</clipPath>
</defs>
</svg>
