<svg width="359" height="800" viewBox="0 0 359 800" fill="none" xmlns="http://www.w3.org/2000/svg">
<g clip-path="url(#clip0_862_3081)">
<path d="M0 96.6667L7.51241 88.75C15.0913 80.8333 30.1161 65 45.0744 65C60.0328 65 74.9246 80.8333 89.883 94.1667C104.841 107.5 119.866 118.333 134.824 123.75C149.783 129.167 164.675 129.167 179.633 114.417C194.591 99.75 209.616 70.25 224.574 68.9167C239.533 67.5 254.425 94.1667 269.383 98.1667C284.341 102.25 299.366 83.5833 314.324 76.9167C329.283 70.25 344.175 75.5833 351.554 78.1667L359 80.8333V0H351.554C344.175 0 329.283 0 314.324 0C299.366 0 284.341 0 269.383 0C254.425 0 239.533 0 224.574 0C209.616 0 194.591 0 179.633 0C164.675 0 149.783 0 134.824 0C119.866 0 104.841 0 89.883 0C74.9246 0 60.0328 0 45.0744 0C30.1161 0 15.0913 0 7.51241 0H0V96.6667Z" fill="#ECECEC"/>
<path d="M0 145L7.51241 139.583C15.0913 134.167 30.1161 123.333 45.0744 126C60.0328 128.583 74.9246 144.75 89.883 158.083C104.841 171.417 119.866 181.917 134.824 191.25C149.783 200.583 164.675 208.583 179.633 196.667C194.591 184.75 209.616 152.75 224.574 142.083C239.533 131.417 254.425 141.917 269.383 139.333C284.341 136.667 299.366 120.833 314.324 119.583C329.283 118.333 344.175 131.667 351.554 138.333L359 145V79.1667L351.554 76.5C344.175 73.9167 329.283 68.5834 314.324 75.25C299.366 81.9167 284.341 100.583 269.383 96.5C254.425 92.5 239.533 65.8334 224.574 67.25C209.616 68.5834 194.591 98.0834 179.633 112.75C164.675 127.5 149.783 127.5 134.824 122.083C119.866 116.667 104.841 105.833 89.883 92.5C74.9246 79.1667 60.0328 63.3334 45.0744 63.3334C30.1161 63.3334 15.0913 79.1667 7.51241 87.0834L0 95V145Z" fill="#E9E9E9"/>
<path d="M0 360.833L7.51241 372.75C15.0913 384.75 30.1161 408.583 45.0744 417.917C60.0328 427.25 74.9246 421.917 89.883 420.667C104.841 419.417 119.866 422.25 134.824 426.25C149.783 430.25 164.675 435.583 179.633 415.583C194.591 395.583 209.616 350.25 224.574 322.25C239.533 294.167 254.425 283.333 269.383 283.333C284.341 283.333 299.366 294.167 314.324 303.583C329.283 313.083 344.175 321.083 351.554 325.167L359 329.167V143.333L351.554 136.667C344.175 130 329.283 116.667 314.324 117.917C299.366 119.167 284.341 135 269.383 137.667C254.425 140.25 239.533 129.75 224.574 140.417C209.616 151.083 194.591 183.083 179.633 195C164.675 206.917 149.783 198.917 134.824 189.583C119.866 180.25 104.841 169.75 89.883 156.417C74.9246 143.083 60.0328 126.917 45.0744 124.333C30.1161 121.667 15.0913 132.5 7.51241 137.917L0 143.333V360.833Z" fill="#E6E6E6"/>
<path d="M0 520.833L7.51241 528.917C15.0913 536.917 30.1161 553.083 45.0744 559.75C60.0328 566.417 74.9246 563.583 89.883 562.25C104.841 560.833 119.866 560.833 134.824 555.583C149.783 550.25 164.675 539.75 179.633 519.75C194.591 499.75 209.616 470.25 224.574 470.25C239.533 470.25 254.425 499.75 269.383 506.417C284.341 513.083 299.366 496.917 314.324 494.167C329.283 491.417 344.175 501.917 351.554 507.25L359 512.5V327.5L351.554 323.5C344.175 319.417 329.283 311.417 314.324 301.917C299.366 292.5 284.341 281.667 269.383 281.667C254.425 281.667 239.533 292.5 224.574 320.583C209.616 348.583 194.591 393.917 179.633 413.917C164.675 433.917 149.783 428.583 134.824 424.583C119.866 420.583 104.841 417.75 89.883 419C74.9246 420.25 60.0328 425.583 45.0744 416.25C30.1161 406.917 15.0913 383.083 7.51241 371.083L0 359.167V520.833Z" fill="#E3E3E3"/>
<path d="M0 560.833L7.51241 575.583C15.0913 590.25 30.1161 619.75 45.0744 634.417C60.0328 649.167 74.9246 649.167 89.883 649.167C104.841 649.167 119.866 649.167 134.824 637.083C149.783 625 164.675 600.833 179.633 584.75C194.591 568.583 209.616 560.583 224.574 564.583C239.533 568.583 254.425 584.75 269.383 579.417C284.341 574.167 299.366 547.5 314.324 546.083C329.283 544.75 344.175 568.583 351.554 580.583L359 592.5V510.833L351.554 505.583C344.175 500.25 329.283 489.75 314.324 492.5C299.366 495.25 284.341 511.417 269.383 504.75C254.425 498.083 239.533 468.583 224.574 468.583C209.616 468.583 194.591 498.083 179.633 518.083C164.675 538.083 149.783 548.583 134.824 553.917C119.866 559.167 104.841 559.167 89.883 560.583C74.9246 561.917 60.0328 564.75 45.0744 558.083C30.1161 551.417 15.0913 535.25 7.51241 527.25L0 519.167V560.833Z" fill="#DEDEDE"/>
<path d="M0 665L7.51241 674.333C15.0913 683.583 30.1161 702.25 45.0744 715.583C60.0328 728.917 74.9246 736.917 89.883 732.917C104.841 728.917 119.866 712.75 134.824 698.083C149.783 683.333 164.675 670 179.633 658.083C194.591 646.083 209.616 635.583 224.574 635.583C239.533 635.583 254.425 646.083 269.383 646.083C284.341 646.083 299.366 635.583 314.324 631.5C329.283 627.5 344.175 630 351.554 631.25L359 632.5V590.833L351.554 578.917C344.175 566.917 329.283 543.083 314.324 544.417C299.366 545.833 284.341 572.5 269.383 577.75C254.425 583.083 239.533 566.917 224.574 562.917C209.616 558.917 194.591 566.917 179.633 583.083C164.675 599.167 149.783 623.333 134.824 635.417C119.866 647.5 104.841 647.5 89.883 647.5C74.9246 647.5 60.0328 647.5 45.0744 632.75C30.1161 618.083 15.0913 588.583 7.51241 573.917L0 559.167V665Z" fill="#D9D9D9"/>
<path d="M0 800.833H7.51241C15.0913 800.833 30.1161 800.833 45.0744 800.833C60.0328 800.833 74.9246 800.833 89.883 800.833C104.841 800.833 119.866 800.833 134.824 800.833C149.783 800.833 164.675 800.833 179.633 800.833C194.591 800.833 209.616 800.833 224.574 800.833C239.533 800.833 254.425 800.833 269.383 800.833C284.341 800.833 299.366 800.833 314.324 800.833C329.283 800.833 344.175 800.833 351.554 800.833H359V630.833L351.554 629.583C344.175 628.333 329.283 625.833 314.324 629.833C299.366 633.917 284.341 644.417 269.383 644.417C254.425 644.417 239.533 633.917 224.574 633.917C209.616 633.917 194.591 644.417 179.633 656.417C164.675 668.333 149.783 681.667 134.824 696.417C119.866 711.083 104.841 727.25 89.883 731.25C74.9246 735.25 60.0328 727.25 45.0744 713.917C30.1161 700.583 15.0913 681.917 7.51241 672.667L0 663.333V800.833Z" fill="#D4D4D4"/>
</g>
<defs>
<clipPath id="clip0_862_3081">
<rect width="359" height="800" fill="white"/>
</clipPath>
</defs>
</svg>
