<svg width="64" height="64" viewBox="0 0 64 64" fill="none" xmlns="http://www.w3.org/2000/svg">
<path d="M10.6666 26.6653C10.6665 28.0661 10.9423 29.4533 11.4783 30.7475C12.0143 32.0417 12.8 33.2177 13.7905 34.2083C14.781 35.1989 15.957 35.9846 17.2511 36.5207C18.5453 37.0568 19.9325 37.3328 21.3333 37.3328C22.7341 37.3328 24.1212 37.0568 25.4154 36.5207C26.7096 35.9846 27.8856 35.1989 28.8761 34.2083C29.8666 33.2177 30.6522 32.0417 31.1882 30.7475C31.7242 29.4533 32.0001 28.0661 32 26.6653C32.0001 25.2645 31.7242 23.8773 31.1882 22.5831C30.6522 21.2888 29.8666 20.1129 28.8761 19.1223C27.8856 18.1317 26.7096 17.3459 25.4154 16.8098C24.1212 16.2737 22.7341 15.9978 21.3333 15.9978C19.9325 15.9978 18.5453 16.2737 17.2511 16.8098C15.957 17.3459 14.781 18.1317 13.7905 19.1223C12.8 20.1129 12.0143 21.2888 11.4783 22.5831C10.9423 23.8773 10.6665 25.2645 10.6666 26.6653Z" fill="#FFB300"/>
<path d="M12 45.3319C11.9999 46.7327 12.2757 48.1199 12.8117 49.4141C13.3477 50.7084 14.1334 51.8843 15.1239 52.8749C16.1144 53.8655 17.2903 54.6513 18.5845 55.1874C19.8787 55.7235 21.2658 55.9994 22.6667 55.9994C24.0675 55.9994 25.4546 55.7235 26.7488 55.1874C28.043 54.6513 29.2189 53.8655 30.2094 52.8749C31.1999 51.8843 31.9856 50.7084 32.5216 49.4141C33.0576 48.1199 33.3334 46.7327 33.3333 45.3319C33.3334 43.9311 33.0576 42.5439 32.5216 41.2497C31.9856 39.9555 31.1999 38.7795 30.2094 37.7889C29.2189 36.7983 28.043 36.0126 26.7488 35.4765C25.4546 34.9404 24.0675 34.6644 22.6667 34.6644C21.2658 34.6644 19.8787 34.9404 18.5845 35.4765C17.2903 36.0126 16.1144 36.7983 15.1239 37.7889C14.1334 38.7795 13.3477 39.9555 12.8117 41.2497C12.2757 42.5439 11.9999 43.9311 12 45.3319Z" fill="#FFB300"/>
<path d="M50.6667 34.496C50.6667 26.2733 45.6307 28.172 45.6307 10.4626H33.0373C33.0373 28.172 28 26.2733 28 34.496V54.104C27.9993 54.6059 28.1979 55.0876 28.5522 55.4431C28.9065 55.7986 29.3874 55.9989 29.8893 56H48.7787C49.2803 55.9986 49.761 55.7981 50.115 55.4426C50.4689 55.0871 50.6674 54.6057 50.6667 54.104V34.496Z" fill="#90CAF9"/>
<path d="M46.6667 10.0013C46.6667 11.1053 45.8453 12 44.8333 12H33.8333C32.8213 12 32 11.1053 32 10.0013V8.66796C32 7.56396 32.8213 6.66663 33.8333 6.66663H44.8333C45.8453 6.66663 46.6667 7.56396 46.6667 8.66796V10.0013Z" fill="#9C27B0"/>
<path d="M48.148 51.5733C48.1484 51.6564 48.1323 51.7387 48.1008 51.8155C48.0692 51.8923 48.0228 51.9622 47.9642 52.021C47.9056 52.0799 47.836 52.1265 47.7593 52.1584C47.6826 52.1903 47.6004 52.2067 47.5173 52.2067H31.148C31.065 52.2065 30.9829 52.19 30.9062 52.1581C30.8296 52.1261 30.7601 52.0794 30.7015 52.0206C30.6429 51.9618 30.5965 51.892 30.5649 51.8153C30.5333 51.7386 30.5172 51.6563 30.5173 51.5733V34.496C30.5173 31.76 31.1333 30.5173 32.0653 28.6347C32.9067 26.9387 33.8533 25.008 34.552 21.8453H44.1147C44.812 25.008 45.76 26.9373 46.6013 28.6347C47.532 30.516 48.148 31.76 48.148 34.496V51.5733Z" fill="#FAFAFA"/>
<path d="M10.6666 34.668L13.3333 56H50.6666L53.3333 34.668H10.6666ZM20 52H17.3333V46.6666H20V52ZM20 44H17.3333V38.6666H20V44ZM26.6666 52H24V46.6666H26.6666V52ZM26.6666 44H24V38.6666H26.6666V44ZM33.3333 52H30.6666V46.6666H33.3333V52ZM33.3333 44H30.6666V38.6666H33.3333V44ZM40 52H37.3333V46.6666H40V52ZM40 44H37.3333V38.6666H40V44ZM46.6666 52H44V46.6666H46.6666V52ZM46.6666 44H44V38.6666H46.6666V44Z" fill="#E91E63"/>
<path d="M55.3253 32C55.3253 31.6463 55.1849 31.3072 54.9348 31.0572C54.6848 30.8071 54.3456 30.6666 53.992 30.6666H10.008C9.65439 30.6666 9.31526 30.8071 9.06521 31.0572C8.81516 31.3072 8.67468 31.6463 8.67468 32V34.668C8.67468 35.0216 8.81516 35.3607 9.06521 35.6108C9.31526 35.8608 9.65439 36.0013 10.008 36.0013H53.992C54.3456 36.0013 54.6848 35.8608 54.9348 35.6108C55.1849 35.3607 55.3253 35.0216 55.3253 34.668V32Z" fill="#AD1457"/>
<path d="M21.3334 20.7066C21.3334 20.7066 20 12.0012 9.33337 13.3346C12 22.6679 21.3334 20.7066 21.3334 20.7066Z" fill="#4CAF50"/>
</svg>
