<svg width="28" height="30" viewBox="0 0 28 30" fill="none" xmlns="http://www.w3.org/2000/svg">
<path d="M27.246 12.0486L15.5794 1.04105C15.5737 1.03608 15.5683 1.03072 15.5633 1.02501C15.1338 0.634372 14.574 0.417908 13.9934 0.417908C13.4128 0.417908 12.8531 0.634372 12.4235 1.02501L12.4075 1.04105L0.753958 12.0486C0.516247 12.2671 0.326497 12.5327 0.196717 12.8284C0.0669363 13.1241 -4.90625e-05 13.4435 2.69614e-08 13.7665V27.2488C2.69614e-08 27.8676 0.245833 28.4611 0.683417 28.8987C1.121 29.3363 1.71449 29.5821 2.33333 29.5821H9.33333C9.95217 29.5821 10.5457 29.3363 10.9832 28.8987C11.4208 28.4611 11.6667 27.8676 11.6667 27.2488V20.2488H16.3333V27.2488C16.3333 27.8676 16.5792 28.4611 17.0168 28.8987C17.4543 29.3363 18.0478 29.5821 18.6667 29.5821H25.6667C26.2855 29.5821 26.879 29.3363 27.3166 28.8987C27.7542 28.4611 28 27.8676 28 27.2488V13.7665C28 13.4435 27.9331 13.1241 27.8033 12.8284C27.6735 12.5327 27.4838 12.2671 27.246 12.0486ZM25.6667 27.2488H18.6667V20.2488C18.6667 19.6299 18.4208 19.0364 17.9832 18.5988C17.5457 18.1613 16.9522 17.9154 16.3333 17.9154H11.6667C11.0478 17.9154 10.4543 18.1613 10.0168 18.5988C9.57917 19.0364 9.33333 19.6299 9.33333 20.2488V27.2488H2.33333V13.7665L2.34938 13.7519L14 2.74876L25.6521 13.749L25.6681 13.7636L25.6667 27.2488Z" fill="url(#paint0_linear_161_71)"/>
<defs>
<linearGradient id="paint0_linear_161_71" x1="19.5847" y1="7.82112" x2="6.74153" y2="14.8023" gradientUnits="userSpaceOnUse">
<stop stop-color="#D7FF82"/>
<stop offset="1" stop-color="#ABD84D"/>
</linearGradient>
</defs>
</svg>
