<svg width="64" height="64" viewBox="0 0 64 64" fill="none" xmlns="http://www.w3.org/2000/svg">
<path d="M49.5259 26.3641C48.129 26.3641 46.9925 27.5005 46.9925 28.8974C46.9925 30.0783 47.8059 31.07 48.9009 31.3495V36.22H44.2654V25.598C44.2654 22.6319 42.0699 20.1694 39.2188 19.7489V17.2564H43.1672V13.4541C44.2622 13.1748 45.0754 12.1829 45.0754 11.002C45.0754 9.60512 43.939 8.46875 42.5422 8.46875C41.1453 8.46875 40.0088 9.60512 40.0088 11.002C40.0088 12.1829 40.822 13.1746 41.9172 13.4541V16.0064H37.9688V19.6849H32.5753V16.3546C33.6703 16.0753 34.4837 15.0834 34.4837 13.9025C34.4837 12.5056 33.3472 11.3693 31.9503 11.3693C30.5534 11.3693 29.417 12.5056 29.417 13.9025C29.417 15.0834 30.2303 16.0751 31.3253 16.3546V19.6849H25.8384V16.0064H21.89V13.4541C22.9852 13.1748 23.7984 12.1829 23.7984 11.002C23.7984 9.60512 22.662 8.46875 21.265 8.46875C19.8682 8.46875 18.7318 9.60512 18.7318 11.002C18.7318 12.1829 19.545 13.1746 20.64 13.4541V17.2564H24.5884V19.764C21.7829 20.224 19.635 22.6644 19.635 25.5981V26.3175H13.8493V32.5312C12.7542 32.8105 11.9409 33.8022 11.9409 34.9831C11.9409 36.3801 13.0773 37.5166 14.4743 37.5166C15.8712 37.5166 17.0075 36.3801 17.0075 34.9831C17.0075 33.8025 16.1943 32.8105 15.0993 32.5312V27.5675H19.635V38.4021C19.635 41.3358 21.7829 43.7761 24.5884 44.2361V46.7864H20.64V50.5461C19.545 50.8254 18.7318 51.8174 18.7318 52.998C18.7318 54.395 19.8682 55.5312 21.265 55.5312C22.6619 55.5312 23.7984 54.395 23.7984 52.998C23.7984 51.8171 22.9852 50.8254 21.89 50.5461V48.0364H25.8384V44.3151H31.3253V47.7614C30.2303 48.0406 29.417 49.0326 29.417 50.2132C29.417 51.6102 30.5534 52.7465 31.9503 52.7465C33.3472 52.7465 34.4837 51.6102 34.4837 50.2132C34.4837 49.0326 33.6703 48.0406 32.5753 47.7614V44.3151H38.0348V48.0364H41.983V50.5461C40.888 50.8254 40.0748 51.8174 40.0748 52.998C40.0748 54.395 41.2112 55.5312 42.608 55.5312C44.0049 55.5312 45.1414 54.395 45.1414 52.998C45.1414 51.8174 44.328 50.8254 43.233 50.5461V46.7864H39.2848V44.241C42.1038 43.7925 44.2655 41.3453 44.2655 38.4021V37.47H50.151V31.3495C51.246 31.07 52.0593 30.0783 52.0593 28.8974C52.0592 27.5005 50.9228 26.3641 49.5259 26.3641ZM41.2588 11.002C41.2588 10.2944 41.8344 9.71875 42.5422 9.71875C43.2497 9.71875 43.8254 10.2944 43.8254 11.002C43.8254 11.7096 43.2498 12.2854 42.5422 12.2854C41.8345 12.2852 41.2588 11.7096 41.2588 11.002ZM30.6669 13.9025C30.6669 13.1949 31.2425 12.6193 31.9502 12.6193C32.6578 12.6193 33.2335 13.1949 33.2335 13.9025C33.2335 14.6101 32.6579 15.1859 31.9502 15.1859C31.2424 15.1859 30.6669 14.6101 30.6669 13.9025ZM19.9818 11.002C19.9818 10.2944 20.5574 9.71875 21.265 9.71875C21.9727 9.71875 22.5484 10.2944 22.5484 11.002C22.5484 11.7096 21.9728 12.2854 21.265 12.2854C20.5574 12.2852 19.9818 11.7096 19.9818 11.002ZM15.7575 34.9831C15.7575 35.6909 15.1819 36.2666 14.4743 36.2666C13.7667 36.2666 13.1909 35.691 13.1909 34.9831C13.1909 34.2756 13.7665 33.6999 14.4743 33.6999C15.1819 33.7 15.7575 34.2756 15.7575 34.9831ZM22.5484 52.998C22.5484 53.7055 21.9728 54.2812 21.265 54.2812C20.5574 54.2812 19.9818 53.7056 19.9818 52.998C19.9818 52.2904 20.5574 51.7147 21.265 51.7147C21.9727 51.7149 22.5484 52.2905 22.5484 52.998ZM33.2335 50.2134C33.2335 50.9209 32.6579 51.4966 31.9502 51.4966C31.2424 51.4966 30.6669 50.921 30.6669 50.2134C30.6669 49.5057 31.2425 48.9301 31.9502 48.9301C32.6578 48.9301 33.2335 49.5059 33.2335 50.2134ZM43.8913 52.998C43.8913 53.7055 43.3157 54.2812 42.6079 54.2812C41.9004 54.2812 41.3247 53.7056 41.3247 52.998C41.3247 52.2904 41.9003 51.7147 42.6079 51.7147C43.3155 51.7149 43.8913 52.2905 43.8913 52.998ZM43.0154 38.4021C43.0154 40.9734 40.9237 43.0653 38.3523 43.0653H25.5482C22.9769 43.0653 20.885 40.9735 20.885 38.4021V25.598C20.885 23.0267 22.9769 20.9347 25.5482 20.9347H38.3523C40.9235 20.9347 43.0154 23.0266 43.0154 25.598V38.4021ZM49.5259 30.1806C48.8183 30.1806 48.2425 29.605 48.2425 28.8974C48.2425 28.1898 48.8182 27.6141 49.5259 27.6141C50.2334 27.6141 50.8092 28.1898 50.8092 28.8974C50.8092 29.605 50.2334 30.1806 49.5259 30.1806Z" fill="url(#paint0_linear_687_316)"/>
<defs>
<linearGradient id="paint0_linear_687_316" x1="40.0019" y1="20.4154" x2="20.6668" y2="29.7471" gradientUnits="userSpaceOnUse">
<stop stop-color="#D7FF82"/>
<stop offset="1" stop-color="#ABD84D"/>
</linearGradient>
</defs>
</svg>
