<svg width="28" height="28" viewBox="0 0 28 28" fill="none" xmlns="http://www.w3.org/2000/svg">
<path d="M26.9231 11.3036H25.7963C25.5258 8.36205 24.1659 5.62775 21.9836 3.63697C19.8013 1.64619 16.9539 0.542572 14 0.542572C11.0461 0.542572 8.1987 1.64619 6.01638 3.63697C3.83406 5.62775 2.47425 8.36205 2.20365 11.3036H1.07692C0.791305 11.3036 0.517386 11.417 0.315423 11.619C0.113461 11.8209 0 12.0949 0 12.3805C0.00473174 14.9416 0.709548 17.4526 2.03823 19.6421C3.3669 21.8316 5.26888 23.6161 7.53846 24.8028V25.3036C7.53846 25.8748 7.76538 26.4226 8.16931 26.8266C8.57323 27.2305 9.12107 27.4574 9.69231 27.4574H18.3077C18.8789 27.4574 19.4268 27.2305 19.8307 26.8266C20.2346 26.4226 20.4615 25.8748 20.4615 25.3036V24.8028C22.7311 23.6161 24.6331 21.8316 25.9618 19.6421C27.2905 17.4526 27.9953 14.9416 28 12.3805C28 12.0949 27.8865 11.8209 27.6846 11.619C27.4826 11.417 27.2087 11.3036 26.9231 11.3036ZM23.6304 11.3036H16.7085C18.0141 9.34475 19.9894 7.92945 22.264 7.32299C23.0078 8.53271 23.4744 9.89211 23.6304 11.3036ZM20.1223 4.87299C20.3691 5.07491 20.6056 5.28805 20.8317 5.51241C17.9649 6.52088 15.5959 8.59349 14.2154 11.3009H10.2442C10.9173 9.41414 12.1565 7.78122 13.7925 6.6252C15.4284 5.46918 17.3814 4.84643 19.3846 4.84202C19.631 4.84202 19.8773 4.85414 20.1223 4.87299ZM14 2.68818C14.8642 2.68875 15.7244 2.80511 16.5577 3.03414C14.5283 3.53756 12.6674 4.56706 11.1627 6.01886C9.65794 7.47066 8.56249 9.29347 7.98673 11.3036H4.36962C4.63675 8.93549 5.76601 6.74854 7.54211 5.15964C9.3182 3.57074 11.6169 2.69101 14 2.68818ZM18.935 23.1497C18.7471 23.236 18.5881 23.3746 18.4769 23.5488C18.3656 23.7231 18.3069 23.9257 18.3077 24.1324V25.3036H9.69231V24.1324C9.6931 23.9257 9.63437 23.7231 9.52313 23.5488C9.41189 23.3746 9.25285 23.236 9.065 23.1497C7.17112 22.2782 5.5398 20.9239 4.33476 19.2227C3.12972 17.5214 2.39337 15.5332 2.19962 13.4574H25.7963C25.603 15.5327 24.8672 17.5207 23.6629 19.2219C22.4586 20.9231 20.8281 22.2777 18.935 23.1497Z" fill="white"/>
</svg>
