<svg width="32" height="32" viewBox="0 0 32 32" fill="none" xmlns="http://www.w3.org/2000/svg">
<path d="M16 9.99999C14.8133 9.99999 13.6533 10.3519 12.6666 11.0112C11.6799 11.6705 10.9108 12.6075 10.4567 13.7039C10.0026 14.8002 9.88377 16.0066 10.1153 17.1705C10.3468 18.3344 10.9182 19.4035 11.7574 20.2426C12.5965 21.0817 13.6656 21.6532 14.8295 21.8847C15.9933 22.1162 17.1997 21.9974 18.2961 21.5433C19.3925 21.0891 20.3295 20.3201 20.9888 19.3334C21.6481 18.3467 22 17.1867 22 16C21.9983 14.4092 21.3657 12.884 20.2408 11.7592C19.1159 10.6343 17.5908 10.0016 16 9.99999ZM16 20C15.2089 20 14.4355 19.7654 13.7777 19.3259C13.1199 18.8863 12.6072 18.2616 12.3045 17.5307C12.0017 16.7998 11.9225 15.9955 12.0769 15.2196C12.2312 14.4437 12.6122 13.731 13.1716 13.1716C13.731 12.6121 14.4437 12.2312 15.2196 12.0768C15.9956 11.9225 16.7998 12.0017 17.5307 12.3045C18.2616 12.6072 18.8863 13.1199 19.3259 13.7777C19.7654 14.4355 20 15.2089 20 16C20 17.0609 19.5786 18.0783 18.8284 18.8284C18.0783 19.5786 17.0609 20 16 20ZM29.7425 13.4012C29.7146 13.2604 29.6568 13.1272 29.5729 13.0108C29.489 12.8943 29.381 12.7973 29.2562 12.7262L25.5275 10.6012L25.5125 6.39874C25.512 6.254 25.4802 6.11109 25.4191 5.97988C25.358 5.84866 25.2692 5.73227 25.1587 5.63874C23.8062 4.49461 22.2485 3.61782 20.5687 3.05499C20.4365 3.01021 20.2963 2.99364 20.1572 3.00634C20.0181 3.01905 19.8832 3.06074 19.7612 3.12874L16 5.23124L12.235 3.12499C12.1129 3.05661 11.9779 3.0146 11.8386 3.00168C11.6993 2.98876 11.5588 3.00522 11.4262 3.04999C9.74768 3.61693 8.19186 4.49707 6.84124 5.64374C6.73095 5.73713 6.64222 5.85333 6.58115 5.98431C6.52008 6.1153 6.48813 6.25796 6.48749 6.40249L6.46874 10.6087L2.73999 12.7337C2.61525 12.8048 2.50725 12.9018 2.42335 13.0183C2.33944 13.1347 2.2816 13.2679 2.25374 13.4087C1.91249 15.1236 1.91249 16.8889 2.25374 18.6037C2.2816 18.7446 2.33944 18.8777 2.42335 18.9942C2.50725 19.1107 2.61525 19.2077 2.73999 19.2787L6.46874 21.4037L6.48374 25.6062C6.4842 25.751 6.51606 25.8939 6.57714 26.0251C6.63821 26.1563 6.72704 26.2727 6.83749 26.3662C8.19008 27.5104 9.74769 28.3872 11.4275 28.95C11.5598 28.9948 11.7 29.0113 11.8391 28.9986C11.9781 28.9859 12.113 28.9442 12.235 28.8762L16 26.7687L19.765 28.875C19.914 28.958 20.0819 29.0011 20.2525 29C20.3617 28.9999 20.4702 28.9822 20.5737 28.9475C22.2521 28.3813 23.8079 27.502 25.1587 26.3562C25.269 26.2628 25.3578 26.1466 25.4188 26.0157C25.4799 25.8847 25.5119 25.742 25.5125 25.5975L25.5312 21.3912L29.26 19.2662C29.3847 19.1952 29.4927 19.0982 29.5766 18.9817C29.6605 18.8652 29.7184 18.7321 29.7462 18.5912C30.0856 16.8778 30.0843 15.1142 29.7425 13.4012ZM27.8675 17.765L24.2962 19.7962C24.1398 19.8852 24.0102 20.0148 23.9212 20.1712C23.8487 20.2962 23.7725 20.4287 23.695 20.5537C23.5958 20.7114 23.5429 20.8937 23.5425 21.08L23.5237 25.1112C22.5638 25.8651 21.4944 26.4678 20.3525 26.8987L16.75 24.8912C16.6004 24.8085 16.4322 24.7654 16.2612 24.7662H16.2375C16.0862 24.7662 15.9337 24.7662 15.7825 24.7662C15.6036 24.7618 15.4267 24.8049 15.27 24.8912L11.665 26.9037C10.5206 26.4761 9.44827 25.8763 8.48499 25.125L8.47124 21.1C8.47063 20.9134 8.4178 20.7306 8.31874 20.5725C8.24124 20.4475 8.16499 20.3225 8.09374 20.19C8.0054 20.0311 7.87585 19.899 7.71874 19.8075L4.14374 17.7712C3.95874 16.601 3.95874 15.409 4.14374 14.2387L7.70874 12.2037C7.86522 12.1148 7.99477 11.9852 8.08374 11.8287C8.15624 11.7037 8.23249 11.5712 8.30999 11.4462C8.4092 11.2886 8.46204 11.1062 8.46249 10.92L8.48124 6.88874C9.44115 6.13492 10.5106 5.53214 11.6525 5.10124L15.25 7.10874C15.4066 7.19552 15.5836 7.23869 15.7625 7.23374C15.9137 7.23374 16.0662 7.23374 16.2175 7.23374C16.3964 7.23821 16.5732 7.19507 16.73 7.10874L20.335 5.09624C21.4794 5.52383 22.5517 6.12366 23.515 6.87499L23.5287 10.9C23.5294 11.0866 23.5822 11.2693 23.6812 11.4275C23.7587 11.5525 23.835 11.6775 23.9062 11.81C23.9946 11.9689 24.1241 12.101 24.2812 12.1925L27.8562 14.2287C28.0437 15.3999 28.0458 16.5932 27.8625 17.765H27.8675Z" fill="white"/>
</svg>
