<svg width="36" height="24" viewBox="0 0 36 24" fill="none" xmlns="http://www.w3.org/2000/svg">
<path d="M34.875 10.875H33.75V6.375C33.75 5.77826 33.5129 5.20597 33.091 4.78401C32.669 4.36205 32.0967 4.125 31.5 4.125H29.25V3C29.25 2.40326 29.0129 1.83097 28.591 1.40901C28.169 0.987053 27.5967 0.75 27 0.75H23.625C23.0283 0.75 22.456 0.987053 22.034 1.40901C21.6121 1.83097 21.375 2.40326 21.375 3V10.875H14.625V3C14.625 2.40326 14.3879 1.83097 13.966 1.40901C13.544 0.987053 12.9717 0.75 12.375 0.75H9C8.40326 0.75 7.83097 0.987053 7.40901 1.40901C6.98705 1.83097 6.75 2.40326 6.75 3V4.125H4.5C3.90326 4.125 3.33097 4.36205 2.90901 4.78401C2.48705 5.20597 2.25 5.77826 2.25 6.375V10.875H1.125C0.826631 10.875 0.540483 10.9935 0.329505 11.2045C0.118526 11.4155 0 11.7016 0 12C0 12.2984 0.118526 12.5845 0.329505 12.7955C0.540483 13.0065 0.826631 13.125 1.125 13.125H2.25V17.625C2.25 18.2217 2.48705 18.794 2.90901 19.216C3.33097 19.6379 3.90326 19.875 4.5 19.875H6.75V21C6.75 21.5967 6.98705 22.169 7.40901 22.591C7.83097 23.0129 8.40326 23.25 9 23.25H12.375C12.9717 23.25 13.544 23.0129 13.966 22.591C14.3879 22.169 14.625 21.5967 14.625 21V13.125H21.375V21C21.375 21.5967 21.6121 22.169 22.034 22.591C22.456 23.0129 23.0283 23.25 23.625 23.25H27C27.5967 23.25 28.169 23.0129 28.591 22.591C29.0129 22.169 29.25 21.5967 29.25 21V19.875H31.5C32.0967 19.875 32.669 19.6379 33.091 19.216C33.5129 18.794 33.75 18.2217 33.75 17.625V13.125H34.875C35.1734 13.125 35.4595 13.0065 35.6705 12.7955C35.8815 12.5845 36 12.2984 36 12C36 11.7016 35.8815 11.4155 35.6705 11.2045C35.4595 10.9935 35.1734 10.875 34.875 10.875ZM4.5 17.625V6.375H6.75V17.625H4.5ZM12.375 21H9V3H12.375V21ZM27 21H23.625V3H27V18.7247C27 18.7331 27 18.7416 27 18.75C27 18.7584 27 18.7669 27 18.7753V21ZM31.5 17.625H29.25V6.375H31.5V17.625Z" fill="white"/>
</svg>
